<?xml version="1.0" standalone="no"?>
<!DOCTYPE svg PUBLIC "-//W3C//DTD SVG 1.1//EN" "http://www.w3.org/Graphics/SVG/1.1/DTD/svg11.dtd" >
<svg xmlns="http://www.w3.org/2000/svg" xmlns:xlink="http://www.w3.org/1999/xlink" version="1.1">
<metadata></metadata>
<defs>
<font id="varent_groteskbold" horiz-adv-x="705" >
<font-face units-per-em="1000" ascent="800" descent="-200" />
<missing-glyph horiz-adv-x="260" />
<glyph unicode="&#xfb01;" horiz-adv-x="734" d="M378 762q84 0 154.5 -35.5t99.5 -107.5l-152 -40q6 52 -26 77t-84 25q-60 0 -94.5 -35t-34.5 -102v-44h418v-500h-169v475h-249v-475h-151v475h-67v25h67v50q0 56 25.5 99t68 66.5t91.5 35t103 11.5z" />
<glyph unicode="&#xfb02;" horiz-adv-x="920" d="M23 475v25h67v50q0 56 31 99t82.5 66.5t111 35t125.5 11.5q83 0 149 -21v9h169v-509q0 -81 4 -96q9 -32 44 -32q30 0 89 23l-10 -136h-98q-99 0 -148 53.5t-49 145.5l-1 378q-4 51 -47.5 77.5t-116.5 26.5q-92 0 -138 -32.5t-46 -104.5v-44h139v-25h-139v-475h-151v475 h-67z" />
<glyph unicode="&#xfb03;" horiz-adv-x="1201" d="M846 762q84 0 154.5 -35.5t99.5 -107.5l-152 -40q6 52 -26.5 77t-83.5 25q-60 0 -95 -35t-35 -102v-44h418v-500h-169v475h-249v-475h-150v475h-317v-475h-151v475h-67v25h67v50q0 74 52 124t124 69t158 19q133 0 215 -54q80 54 207 54zM241 500h317v50q0 25 4 44 q-19 87 -152 87q-169 0 -169 -137v-44z" />
<glyph unicode="&#xfb04;" horiz-adv-x="1387" d="M23 475v25h67v50q0 74 52 124t124 69t158 19q140 0 223 -59q97 59 260 59q84 0 148 -21v9h170v-509v-23q-1 -40 0.5 -57.5t12.5 -32.5t34 -15q31 0 89 23l-10 -136h-97q-100 0 -148.5 53.5t-48.5 145.5l-1 377q-3 52 -46.5 78.5t-118.5 26.5q-92 0 -137.5 -32.5 t-45.5 -104.5v-44h139v-25h-139v-475h-151v475h-316v-475h-151v475h-67zM241 500h316v50q0 21 5 43q-18 88 -152 88q-169 0 -169 -137v-44z" />
<glyph horiz-adv-x="0" />
<glyph horiz-adv-x="0" />
<glyph unicode="&#xd;" horiz-adv-x="250" />
<glyph unicode=" "  horiz-adv-x="260" />
<glyph unicode="&#x09;" horiz-adv-x="260" />
<glyph unicode="&#xa0;" horiz-adv-x="260" />
<glyph unicode="!" horiz-adv-x="342" d="M258 750l-74 -563h-25l-74 563h173zM78 42q0 36 25.5 58.5t69.5 22.5t67.5 -22t23.5 -59q0 -39 -23.5 -61t-67.5 -22t-69.5 22.5t-25.5 60.5z" />
<glyph unicode="&#x22;" horiz-adv-x="348" d="M151 708l-25 -243h-25l-25 243h75zM272 708l-25 -243h-25l-25 243h75z" />
<glyph unicode="#" horiz-adv-x="622" d="M96 0l52 240h-122v10h124l53 242h-132v10h134l50 228h10l-50 -228h245l50 228h10l-50 -228h126v-10h-128l-53 -242h136v-10h-138l-52 -240h-10l52 240h-245l-52 -240h-10zM160 250h245l53 242h-245z" />
<glyph unicode="$" horiz-adv-x="702" d="M330 -88h-10v74q-255 14 -286 228l168 41q-11 -59 21.5 -110t96.5 -64v304q-129 44 -174 70q-85 50 -93 127q-9 77 57 129.5t208 52.5h2v76h10v-76q152 -3 224.5 -68.5t76.5 -168.5l-166 -27q22 66 -12 121.5t-114 55.5h-9v-275q31 -15 82.5 -33t88.5 -32t74.5 -34.5 t58 -51t21.5 -70.5q0 -96 -85.5 -146t-213.5 -50q-17 0 -26 1v-74zM209 557q1 -95 111 -151v270q-48 -5 -79.5 -34.5t-31.5 -84.5zM520 223q0 31 -14.5 55.5t-44 43.5t-58 31t-73.5 28v-302q18 -2 28 -2q69 0 115.5 38t46.5 108z" />
<glyph unicode="%" horiz-adv-x="782" d="M184 0l410 717h11l-410 -717h-11zM56 520q0 95 38.5 146t111.5 51t111 -51t38 -146t-38.5 -146t-110.5 -51q-73 0 -111.5 51t-38.5 146zM136 520q0 -69 19 -112t51 -43t51 43t19 112q0 70 -18.5 112t-51.5 42t-51.5 -42t-18.5 -112zM427 182q0 95 38.5 146t111.5 51 t111 -51t38 -146t-38.5 -146t-110.5 -51q-73 0 -111.5 51t-38.5 146zM507 182q0 -69 19 -112t51 -43t51 43t19 112q0 70 -18.5 112t-51.5 42t-51.5 -42t-18.5 -112z" />
<glyph unicode="&#x26;" horiz-adv-x="816" d="M671 0l-94 415h-15q1 -125 -26 -219t-87 -150.5t-147 -56.5q-111 0 -179 55.5t-68 150.5q0 86 67.5 145.5t178.5 83.5q-201 31 -201 152q0 83 86 136t236 53q116 0 193.5 -34t134.5 -107l-162 -75q12 63 -32 98.5t-118 35.5q-78 0 -121 -29t-43 -81q0 -131 186 -133h237 l107 -440h-133zM538 415h-95q-92 -2 -153 -48.5t-61 -135.5q0 -70 31.5 -109.5t92.5 -39.5q51 0 89 29.5t58 80t29 106t9 117.5z" />
<glyph unicode="'" horiz-adv-x="227" d="M151 708l-25 -243h-25l-25 243h75z" />
<glyph unicode="(" horiz-adv-x="239" d="M244 -5v-10q-59 0 -103 56.5t-65.5 144t-21.5 190.5q0 102 21.5 189.5t65.5 143.5t103 56v-10q-79 0 -129.5 -112t-50.5 -267q0 -156 50.5 -268.5t129.5 -112.5z" />
<glyph unicode=")" horiz-adv-x="239" d="M-5 -15v10q79 0 129.5 112.5t50.5 268.5q0 155 -50.5 267t-129.5 112v10q59 0 103 -56t65.5 -143.5t21.5 -189.5q0 -103 -21.5 -190.5t-65.5 -144t-103 -56.5z" />
<glyph unicode="*" horiz-adv-x="488" d="M282 750l-23 -195l173 90l27 -70l-189 -48l139 -137l-58 -47l-107 168l-106 -168l-59 47l139 137l-189 48l26 70l174 -90l-22 195h75z" />
<glyph unicode="+" horiz-adv-x="556" d="M66 353v10h207v207h10v-207h208v-10h-208v-207h-10v207h-207z" />
<glyph unicode="," horiz-adv-x="302" d="M40 40q0 38 25.5 60.5t70.5 22.5t68.5 -22.5t23.5 -60.5q0 -75 -35.5 -120.5t-105.5 -45.5h-13v24q58 0 70 57q-104 0 -104 85z" />
<glyph unicode="-" horiz-adv-x="370" d="M61 353v10h249v-10h-249z" />
<glyph unicode="." horiz-adv-x="336" d="M74 40q0 38 25.5 60.5t70.5 22.5t68.5 -22.5t23.5 -60.5q0 -40 -23.5 -62.5t-68.5 -22.5t-70.5 23t-25.5 62z" />
<glyph unicode="/" horiz-adv-x="304" d="M6 -49l250 814h10l-250 -814h-10z" />
<glyph unicode="0" horiz-adv-x="691" d="M41 376q0 188 78 288.5t225 100.5q149 0 227.5 -100.5t78.5 -288.5t-78.5 -289.5t-227.5 -101.5q-147 0 -225 101.5t-78 289.5zM208 376q0 -141 35.5 -225t99.5 -84q66 0 102 84t36 225q0 140 -36 223.5t-102 83.5q-64 0 -99.5 -83.5t-35.5 -223.5z" />
<glyph unicode="1" horiz-adv-x="418" d="M79 472l-32 102q45 6 63 46t21 130h258v-750h-167l2 696h-9q3 -107 -42.5 -165.5t-93.5 -58.5z" />
<glyph unicode="2" horiz-adv-x="743" d="M61 0v100q57 6 114.5 24t115 53t101 81.5t71 114.5t27.5 147q0 78 -35 120.5t-99 42.5q-71 0 -106 -47.5t-29 -121.5l-165 95q45 68 127.5 112t187.5 44q57 0 108.5 -14.5t93.5 -42.5t66.5 -75t24.5 -106q0 -113 -92 -219t-234 -189h349v-119h-626z" />
<glyph unicode="3" horiz-adv-x="741" d="M255 410v25q194 2 194 144q0 44 -31 74t-85 30q-70 0 -104.5 -47.5t-29.5 -121.5l-164 95q44 68 127 112t186 44q115 0 195 -50.5t80 -128.5q0 -126 -209 -163q253 -44 253 -211q0 -98 -84.5 -155t-234.5 -57q-106 0 -189.5 44t-128.5 112l164 96q-11 -71 33.5 -120.5 t120.5 -49.5q70 0 108 38t38 109q0 53 -19 90t-54 56t-75 27t-91 8z" />
<glyph unicode="4" horiz-adv-x="712" d="M606 750v-478h69v-119h-69v-153h-175l1 153h-398v10l387 587h185zM131 272h301l1 459z" />
<glyph unicode="5" horiz-adv-x="752" d="M122 750h516v-119h-371l-25 -235q32 36 84.5 56t111.5 20q68 0 126 -25t97.5 -82.5t39.5 -138.5q0 -108 -87.5 -174.5t-237.5 -66.5q-106 0 -192 49t-128 124l171 73q-4 -83 39.5 -123.5t106.5 -40.5q69 0 111.5 48t42.5 134q0 92 -41.5 139t-101.5 47q-42 0 -82 -22.5 t-65 -61.5h-157z" />
<glyph unicode="6" horiz-adv-x="767" d="M53 340q0 178 114 301.5t272 123.5q87 0 149.5 -38.5t98.5 -146.5l-188 -35q11 65 -9.5 105.5t-65.5 40.5q-86 0 -141.5 -106.5t-55.5 -244.5q89 110 243 110q101 0 175 -59.5t74 -164.5t-84 -173t-234 -68q-164 0 -256 91.5t-92 263.5zM227 311q6 -122 51.5 -182 t115.5 -60t111 43t41 118q0 80 -42.5 122.5t-105.5 42.5q-102 0 -171 -84z" />
<glyph unicode="7" horiz-adv-x="637" d="M577 750v-10l-315 -740h-25l268 631h-444v119h516z" />
<glyph unicode="8" horiz-adv-x="800" d="M579 236q0 36 -13.5 64t-41 47.5t-56 32t-69.5 25.5q-41 -13 -69 -25.5t-55 -32t-40.5 -47.5t-13.5 -64q0 -67 49.5 -117t129.5 -50t129.5 50t49.5 117zM262 558q0 -56 35.5 -86.5t101.5 -48.5q64 18 99.5 48.5t35.5 86.5q0 57 -35.5 92t-101.5 35t-100.5 -33.5 t-34.5 -93.5zM366 414q-122 35 -162 56q-89 48 -88 136q0 76 78.5 117t202.5 41q123 0 202.5 -42t79.5 -116q0 -35 -14.5 -63t-31.5 -45t-55 -34t-59.5 -24t-70.5 -21q-11 -3 -17 -5q19 -4 54 -11.5t56.5 -12t53 -13.5t51 -18t42 -23.5t35 -32.5t21 -43t8.5 -55 q0 -101 -95 -161t-257 -60t-257 60t-95 161q0 34 9.5 61.5t30 47t40.5 33t55 24t58 16.5t64.5 14t60.5 13z" />
<glyph unicode="9" horiz-adv-x="767" d="M715 410q0 -178 -114 -301.5t-272 -123.5q-41 0 -73.5 7t-67 26t-61.5 57t-46 95l188 36q-11 -65 9.5 -106t65.5 -41q86 0 141.5 106.5t55.5 244.5q-88 -109 -243 -109q-101 0 -175 59.5t-74 163.5q0 105 84 173t234 68q164 0 256 -91.5t92 -263.5zM540 439 q-5 122 -50.5 182t-115.5 60t-111 -43t-41 -117q0 -80 42.5 -123t105.5 -43q103 0 170 84z" />
<glyph unicode=":" horiz-adv-x="356" d="M84 398q0 37 26 60t70 23q45 0 68.5 -22.5t23.5 -60.5q0 -40 -23.5 -62.5t-68.5 -22.5t-70.5 23t-25.5 62zM84 40q0 38 25.5 60.5t70.5 22.5t68.5 -22.5t23.5 -60.5q0 -40 -23.5 -62.5t-68.5 -22.5t-70.5 23t-25.5 62z" />
<glyph unicode=";" horiz-adv-x="322" d="M50 398q0 37 26 60t70 23q45 0 68.5 -22.5t23.5 -60.5q0 -40 -23.5 -62.5t-68.5 -22.5t-70.5 23t-25.5 62zM50 40q0 38 25.5 60.5t70.5 22.5t68.5 -22.5t23.5 -60.5q0 -75 -35.5 -120.5t-105.5 -45.5h-13v24q58 0 70 57q-104 0 -104 85z" />
<glyph unicode="&#x3c;" horiz-adv-x="598" d="M99 310v90l401 194v-92l-375 -179l375 -182v-25z" />
<glyph unicode="=" horiz-adv-x="557" d="M66 412v10h425v-10h-425zM66 294v10h425v-10h-425z" />
<glyph unicode="&#x3e;" horiz-adv-x="598" d="M99 569v25l401 -193v-90l-401 -194v92l374 179z" />
<glyph unicode="?" horiz-adv-x="643" d="M314 187h-25q0 45 15.5 83.5t37.5 67t44.5 58.5t38 73t15.5 96q0 55 -31.5 86.5t-88.5 31.5q-69 0 -105 -48t-31 -121l-164 95q43 68 128 112t187 44q117 0 198 -49t81 -144q0 -52 -31 -95.5t-75 -74.5t-88 -60.5t-75 -69t-31 -85.5zM208 42q0 36 25.5 58.5t69.5 22.5 t67.5 -22t23.5 -59q0 -39 -23.5 -61t-67.5 -22t-69.5 22.5t-25.5 60.5z" />
<glyph unicode="@" horiz-adv-x="854" d="M346 151q-82 0 -130.5 54.5t-48.5 154.5q0 93 54.5 151t134.5 58q95 0 149 -76l-1 63h129v-227q0 -68 13.5 -92t47.5 -24q46 0 67.5 38t21.5 99q0 159 -98 257t-257 98t-257 -98t-98 -257t98 -257t257 -98q176 0 276 133l7 -7q-98 -136 -283 -136q-164 0 -264.5 100.5 t-100.5 264.5t100.5 264.5t264.5 100.5t264.5 -100.5t100.5 -264.5q0 -88 -37.5 -142t-98.5 -54q-77 0 -115.5 48t-37.5 139l1 96h-4q-2 -75 -12.5 -129.5t-24.5 -84t-35.5 -46.5t-39.5 -21.5t-43 -4.5zM484 437q-17 55 -68 55q-79 0 -79 -132t74 -132q66 0 73 209z" />
<glyph unicode="A" d="M673 0l-93 267h-309l-91 -267h-173l257 750h173l261 -750h-25zM280 292h291l-147 422z" />
<glyph unicode="B" horiz-adv-x="728" d="M68 0v750h251q183 0 259.5 -40.5t76.5 -140.5q0 -63 -55 -106.5t-149 -63.5q114 -17 181 -64t67 -122q0 -119 -80.5 -166t-285.5 -47h-265zM242 409h54q185 0 185 144q0 63 -34 87.5t-131 24.5h-74v-256zM242 86h97q109 0 147.5 30t38.5 112q0 76 -59.5 116t-147.5 40 h-76v-298z" />
<glyph unicode="C" horiz-adv-x="723" d="M597 206l105 -99q-94 -122 -276 -122q-176 0 -281.5 108t-105.5 283q0 174 102 281.5t275 107.5q177 0 286 -105l-146 -112q-14 135 -144 135q-97 0 -148.5 -83t-51.5 -225q0 -129 54 -215t158 -85q69 1 109.5 35t63.5 96z" />
<glyph unicode="D" horiz-adv-x="720" d="M343 0h-275v750h277q152 0 244 -93t92 -265q0 -195 -87.5 -293.5t-250.5 -98.5zM242 81h55q100 0 155.5 77t55.5 236q0 111 -21 169.5t-64 79.5t-124 21h-57v-583z" />
<glyph unicode="E" horiz-adv-x="612" d="M68 0v750h501v-112h-327v-337h277v-25h-277v-164h327v-112h-501z" />
<glyph unicode="F" horiz-adv-x="600" d="M68 0v750h501v-112h-327v-337h277v-25h-277v-276h-174z" />
<glyph unicode="G" horiz-adv-x="825" d="M337 325v25h431v-350h-29l-134 325h-19q-3 -166 -68.5 -253t-184.5 -87q-139 0 -216.5 106t-77.5 283q0 174 107.5 282.5t288.5 108.5q110 0 191.5 -39.5t116.5 -111.5l-160 -77q4 63 -44 104.5t-107 41.5q-99 0 -159.5 -81t-60.5 -207t49 -202.5t136 -76.5 q159 0 164 209h-224z" />
<glyph unicode="H" horiz-adv-x="838" d="M242 0h-174v750h174v-387l354 -1v388h173v-750h-173v337l-354 1v-338z" />
<glyph unicode="I" horiz-adv-x="249" d="M211 0h-173v750h173v-750z" />
<glyph unicode="J" horiz-adv-x="597" d="M8 172l169 59q-7 -164 89 -164q53 0 74 48t20 162v473h173v-506q0 -131 -70 -195t-198 -64q-100 0 -171 43.5t-86 143.5z" />
<glyph unicode="K" horiz-adv-x="719" d="M242 0h-174v750h174v-365h113l143 368h219l-337 -368l331 -385h-229q-17 174 -114 360h-126v-360z" />
<glyph unicode="L" horiz-adv-x="584" d="M242 750v-638h327v-112h-501v750h174z" />
<glyph unicode="M" horiz-adv-x="952" d="M884 750v-750h-26v674l-228 -675l-175 1l-213 706v-706h-174v750h186l216 -707l242 707h172z" />
<glyph unicode="N" horiz-adv-x="806" d="M242 0h-174v750h185l311 -717v717h173v-750h-184l-311 715v-715z" />
<glyph unicode="O" horiz-adv-x="856" d="M39 376q0 205 92 297t297 92t297.5 -92t92.5 -297q0 -206 -92.5 -298.5t-297.5 -92.5t-297 92.5t-92 298.5zM205 372q0 -168 51.5 -236.5t171.5 -68.5q119 0 171 68.5t52 236.5t-52.5 239.5t-170.5 71.5q-119 0 -171 -71t-52 -240z" />
<glyph unicode="P" horiz-adv-x="715" d="M309 267h-67v-267h-174v750h262q160 0 261 -67.5t101 -180.5q0 -115 -108 -175t-275 -60zM242 292h74q85 0 144 52t59 146q0 101 -46.5 138t-137.5 37h-93v-373z" />
<glyph unicode="Q" horiz-adv-x="861" d="M39 376q0 205 92 297t297 92t297.5 -92t92.5 -297q0 -231 -119 -321l96 -112h-28l-86 99q-89 -57 -253 -57q-205 0 -297 92.5t-92 298.5zM205 372q0 -168 51.5 -236.5t171.5 -68.5q122 0 172 70l-190 220h28l174 -202q39 72 39 217q0 168 -52.5 239.5t-170.5 71.5 q-119 0 -171 -71t-52 -240z" />
<glyph unicode="R" horiz-adv-x="716" d="M68 0v750h255q155 0 252 -62.5t97 -168.5q0 -98 -88.5 -153.5t-229.5 -64.5q217 -199 324 -301h-227q-7 90 -72.5 196t-137.5 182v-378h-173zM241 407q34 -32 88 -82q73 6 121 53t48 128q0 92 -43.5 125.5t-130.5 33.5h-83v-258z" />
<glyph unicode="S" horiz-adv-x="679" d="M197 557q0 -47 24.5 -82t63.5 -56.5t86 -39t94.5 -34t86.5 -36.5t64.5 -52.5t26.5 -75.5q0 -96 -85.5 -146t-213.5 -50q-290 0 -322 229l168 41q-13 -69 30.5 -123.5t125.5 -54.5q69 0 115.5 38t46.5 108q0 45 -33 78t-83 51.5t-109 40t-110.5 42t-89 58.5t-42.5 89 q-9 77 57 129.5t208 52.5q159 0 233.5 -65.5t79.5 -171.5l-166 -27q22 66 -12 121.5t-114 55.5q-55 0 -92.5 -30t-37.5 -90z" />
<glyph unicode="T" horiz-adv-x="615" d="M607 750v-112h-212v-638h-174v638h-213v112h599z" />
<glyph unicode="U" horiz-adv-x="731" d="M63 256v494h174v-494q-8 -102 19 -145.5t109 -43.5q84 0 112 44.5t17 144.5v494h173v-494q0 -271 -302 -271t-302 271z" />
<glyph unicode="V" horiz-adv-x="652" d="M626 750h25l-240 -750h-173l-236 750h173l223 -711z" />
<glyph unicode="W" horiz-adv-x="1170" d="M186 750l216 -709l170 549l-48 160h173l216 -709l220 709h25l-233 -750h-173l-167 549l-170 -549h-174l-228 750h173z" />
<glyph unicode="X" horiz-adv-x="709" d="M650 750h32l-273 -329l298 -421h-174l-218 308l-256 -308h-32l273 329l-297 421h173l218 -308z" />
<glyph unicode="Y" horiz-adv-x="635" d="M169 749l221 -472l225 472h25l-237 -499v-250h-174v250l-233 499h173z" />
<glyph unicode="Z" horiz-adv-x="641" d="M605 750v-10l-474 -621h490v-119h-598v10l474 621h-459v119h567z" />
<glyph unicode="[" horiz-adv-x="275" d="M95 755v-794h125v-10h-135v814h135v-10h-125z" />
<glyph unicode="\" horiz-adv-x="305" d="M297 -49h-10l-250 814h10z" />
<glyph unicode="]" horiz-adv-x="275" d="M180 755h-125v10h135v-814h-135v10h125v794z" />
<glyph unicode="^" horiz-adv-x="588" d="M515 352l-188 337l-185 -337h-93l201 360h90l200 -360h-25z" />
<glyph unicode="_" horiz-adv-x="504" d="M30 -10v10h444v-10h-444z" />
<glyph unicode="`" horiz-adv-x="505" d="M201 769h30q13 -38 31.5 -77t30.5 -58l12 -20h-10q-57 69 -94 155z" />
<glyph unicode="a" horiz-adv-x="628" d="M328 517q112 0 182.5 -52t70.5 -154v-311h-168v267q-23 -8 -38 -33t-21.5 -56t-18 -65.5t-26 -62.5t-47 -46.5t-80.5 -18.5q-73 0 -115.5 39t-42.5 104q0 42 19 73t49.5 48t70 28.5t80.5 13.5t80 3.5t69 -1.5h7.5h6.5h7v10q0 61 -13 84q-24 43 -99 43q-60 0 -83 -29 t-9 -82l-141 33q9 165 260 165zM383 278q-43 0 -73 -2t-62 -9.5t-49 -26t-17 -46.5q0 -30 18.5 -49t51.5 -19q27 0 45 18t25.5 40.5t23.5 48.5t37 37v8z" />
<glyph unicode="b" horiz-adv-x="691" d="M428 517q93 0 162.5 -71.5t69.5 -193.5q0 -128 -66 -196.5t-169 -68.5q-151 0 -209 135v-122h-154v750h150l-1 -577h5q4 102 23 173t50 106.5t64.5 50t74.5 14.5zM233 145q12 -37 46 -55.5t79 -18.5q63 0 99 48t36 135q0 89 -31.5 136t-90.5 47q-25 0 -45 -10.5 t-41 -39.5t-34.5 -90t-17.5 -152z" />
<glyph unicode="c" horiz-adv-x="576" d="M26 250q0 125 75.5 195t210.5 70q30 0 53.5 -2t57.5 -12t59 -27.5t48 -51t34 -80.5l-155 -10q7 49 -21 74.5t-73 25.5q-57 0 -90 -47.5t-33 -134.5q0 -182 127 -182q48 0 73 28t17 72l155 -10q-11 -47 -34 -80.5t-48 -51t-59 -27.5t-57.5 -12t-53.5 -2q-135 0 -210.5 70 t-75.5 195z" />
<glyph unicode="d" horiz-adv-x="638" d="M237 -15q-90 0 -146 65.5t-56 202.5q0 75 18 128.5t49.5 82t67.5 41t80 12.5q143 0 176 -130v363h150v-750h-150v328h-8q-3 -91 -17 -157t-32 -101t-44 -55t-45 -25t-43 -5zM401 344q-13 90 -131 90q-144 0 -144 -143q0 -73 37.5 -111.5t104.5 -38.5q25 0 45 7t41.5 26.5 t33.5 62.5t13 107z" />
<glyph unicode="e" horiz-adv-x="603" d="M195 214q194 40 220 130q12 41 -10.5 65t-67.5 24q-66 0 -105.5 -51t-39.5 -132q0 -18 3 -36zM26 250q0 116 81.5 191.5t222.5 75.5q92 0 158 -40t59 -107q-2 -21 -13 -39.5t-31.5 -33.5t-40 -26.5t-52 -21.5t-54 -16.5t-58.5 -13.5t-52 -10t-49 -8q10 -59 45 -96t96 -37 q44 0 63 27.5t10 72.5l167 -10q-51 -173 -261 -173q-78 0 -137.5 25t-91.5 65.5t-47 84.5t-15 90z" />
<glyph unicode="f" horiz-adv-x="487" d="M288 762q146 0 200 -136l-151 -39q13 46 1 70t-41 24q-37 0 -55 -31.5t-18 -105.5v-44h140v-25h-140v-475h-150l-1 475h-66v25h67v50q0 56 18.5 99t50.5 66.5t68.5 35t76.5 11.5z" />
<glyph unicode="g" horiz-adv-x="652" d="M36 319q0 39 10 70t26 51.5t41.5 35t49.5 22t58.5 12t59.5 5t60 0.5q57 0 100 30.5t43 93.5h159q0 -26 -4.5 -46.5t-10.5 -34.5t-18.5 -23.5t-21.5 -14.5t-26.5 -8t-27 -3.5t-30 -1.5t-27.5 -1v-9q70 -21 111 -59.5t41 -118.5q0 -64 -17 -105t-52 -60.5t-74 -26.5t-98 -7 q-34 0 -102 2t-78 2q-22 1 -36.5 -7.5t-14.5 -21.5q0 -42 192 -42q68 0 109.5 -2t85.5 -10t67 -23t38 -41.5t15 -65.5q0 -40 -15.5 -67.5t-40 -43t-68 -24t-85 -10.5t-106.5 -2q-58 0 -93.5 1t-79 5.5t-69.5 14t-49.5 25t-34 40t-10.5 58.5q0 63 37 97t125 35v9 q-27 3 -41.5 21t-14.5 42q0 49 48 59v9q-54 6 -92.5 39.5t-38.5 99.5zM211 311q0 -59 25.5 -83.5t105.5 -24.5q72 0 99.5 25.5t27.5 82.5t-28.5 82.5t-99.5 25.5q-74 0 -102 -25.5t-28 -82.5zM176 -90q0 -32 35 -43.5t138 -11.5q98 0 130 12t32 43q0 22 -10 32t-45.5 15.5 t-111.5 5.5q-107 0 -137.5 -9t-30.5 -44z" />
<glyph unicode="h" horiz-adv-x="683" d="M628 0h-168v304q0 66 -20 96t-69 30q-137 0 -137 -430h-172v750h154l-6 -646h9q3 109 18 187t35 121t50.5 67.5t56.5 31t62 6.5q101 0 144 -49.5t43 -161.5v-306z" />
<glyph unicode="i" horiz-adv-x="285" d="M49 634q0 36 25.5 58.5t69.5 22.5t67.5 -22t23.5 -59q0 -39 -23.5 -61t-67.5 -22t-69.5 22.5t-25.5 60.5zM226 0h-169v500h169v-500z" />
<glyph unicode="j" horiz-adv-x="310" d="M74 634q0 36 25.5 58.5t69.5 22.5t67.5 -22t23.5 -59q0 -39 -23.5 -61t-67.5 -22t-69.5 22.5t-25.5 60.5zM34 -214q-85 0 -149.5 31t-91.5 89l154 61q-5 -42 14.5 -69t51.5 -27q37 0 53 30.5t16 110.5v488h169v-496q0 -111 -61 -164.5t-156 -53.5z" />
<glyph unicode="k" horiz-adv-x="657" d="M231 750v-476q34 3 52.5 34t28 72t23 82t49 69t94.5 28q73 0 115.5 -39t42.5 -104q0 -159 -282 -166l315 -250h-256l-159 251h-23v-251h-169v750h169zM277 266q43 0 72.5 2t62 9.5t49 26t16.5 46.5q0 30 -18 49.5t-51 19.5q-27 0 -45 -18t-25.5 -41t-23.5 -48.5 t-37 -36.5v-9z" />
<glyph unicode="l" horiz-adv-x="376" d="M368 136l-10 -136h-98q-99 0 -148 53.5t-49 145.5l-1 551h169v-509q0 -81 4 -96q9 -32 44 -32q30 0 89 23z" />
<glyph unicode="m" horiz-adv-x="921" d="M393 517q79 0 113 -49.5t34 -161.5v-17l-1 -185h9q3 109 14.5 187t27 121t39.5 67.5t44.5 31t48.5 6.5q79 0 113 -49.5t34 -161.5v-306h-168v304q0 67 -12.5 96.5t-45.5 29.5q-80 0 -80 -430h-192v304q0 67 -12.5 96.5t-44.5 29.5q-80 0 -80 -430h-172v500h154l-6 -396h9 q3 109 14.5 187t27 121t39.5 67.5t44.5 31t48.5 6.5z" />
<glyph unicode="n" horiz-adv-x="683" d="M441 517q101 0 144 -49.5t43 -161.5v-306h-168v304q0 66 -20 96t-69 30q-137 0 -137 -430h-172v500h154l-6 -396h9q3 109 18 187t35 121t50.5 67.5t56.5 31t62 6.5z" />
<glyph unicode="o" horiz-adv-x="620" d="M26 250q0 137 70 201t209 64q289 0 289 -265t-289 -265q-139 0 -209 64t-70 201zM193 247q0 -35 2.5 -59.5t9.5 -48.5t19 -39t33 -24t50 -9q31 0 53 9t34.5 23.5t19.5 39.5t9 48.5t2 59.5q0 102 -23.5 144t-93.5 42q-69 0 -92 -42t-23 -144z" />
<glyph unicode="p" horiz-adv-x="691" d="M428 517q93 0 162.5 -71.5t69.5 -193.5q0 -128 -66 -196.5t-169 -68.5q-66 0 -117 30.5t-92 109.5v1v-378h-154v750h150l-1 -336l5 1q3 105 22 178t50.5 109t64.5 50.5t75 14.5zM233 145q12 -37 46 -55.5t79 -18.5q63 0 99 48t36 135q0 89 -31.5 136t-90.5 47 q-25 0 -45 -10.5t-41 -39.5t-34.5 -90t-17.5 -152z" />
<glyph unicode="q" horiz-adv-x="691" d="M263 -13q-94 0 -163 72t-69 193q0 129 67 197t171 68q150 0 210 -135v118h150v-750h-150v581h-4q-4 -102 -23 -173t-50 -106.5t-64.5 -50t-74.5 -14.5zM457 359q-11 36 -45.5 55t-78.5 19q-63 0 -99 -48t-36 -134q0 -90 31.5 -137t90.5 -47q25 0 45 10.5t41 39.5t34 90 t17 152z" />
<glyph unicode="r" horiz-adv-x="463" d="M460 514v-111q-31 14 -82 14q-65 0 -103.5 -46.5t-39.5 -143.5q-1 -20 -1 -227h-172v500h154l-2 -233h9q3 115 46 182.5t122 67.5q51 0 69 -3z" />
<glyph unicode="s" horiz-adv-x="558" d="M535 112q0 -60 -66 -93.5t-172 -33.5q-277 0 -304 167l201 37q-4 -60 24.5 -90t77.5 -30q39 0 62 20.5t23 56.5q0 42 -34 70.5t-83 43.5t-98 29.5t-83 41.5t-34 67q0 51 56 85t161 34q244 0 261 -172l-144 -34q13 47 -18.5 84.5t-94.5 37.5q-37 0 -62.5 -16t-25.5 -47 q0 -33 26 -57.5t65.5 -37.5t85.5 -28t85 -29.5t65 -41.5t26 -64z" />
<glyph unicode="t" horiz-adv-x="522" d="M303 0q-88 0 -151 52t-63 161l-1 262h-79v25h80v119l150 90v-209h121v-25h-121v-257q0 -73 18 -105t55 -32q28 0 40 25t0 69l151 -39q-54 -136 -200 -136z" />
<glyph unicode="u" horiz-adv-x="665" d="M234 -17q-96 0 -137.5 49.5t-41.5 161.5v306h168v-304q0 -67 18.5 -96.5t65.5 -29.5q124 0 124 430h172v-500h-154l6 396h-9q-3 -109 -17 -187t-33 -121t-48 -67.5t-54.5 -31t-59.5 -6.5z" />
<glyph unicode="v" horiz-adv-x="512" d="M491 500h25l-173 -500h-173l-174 500h174l160 -464z" />
<glyph unicode="w" horiz-adv-x="906" d="M441 500h173l139 -455l121 455h25l-132 -499v-1h-173l-141 459l-140 -459h-173l-133 500h173l121 -456z" />
<glyph unicode="x" horiz-adv-x="556" d="M497 500h32l-197 -206l218 -294h-173l-143 192l-183 -192h-32l201 211l-214 289h173l139 -187z" />
<glyph unicode="y" horiz-adv-x="478" d="M459 500h25l-224 -676h-25l58 176h-80l-219 500h168l165 -396z" />
<glyph unicode="z" horiz-adv-x="512" d="M485 500v-10l-340 -371h349v-119h-474v10l339 371h-319v119h445z" />
<glyph unicode="{" horiz-adv-x="297" d="M127 544v53q0 168 116 168v-10q-106 0 -106 -158v-53q0 -146 -84 -169q84 -23 84 -169v-53q0 -158 106 -158v-10q-116 0 -116 168v53q0 75 -26.5 119t-79.5 44v12q53 0 79.5 44t26.5 119z" />
<glyph unicode="|" horiz-adv-x="271" d="M141 -88h-10v853h10v-853z" />
<glyph unicode="}" horiz-adv-x="297" d="M171 597v-53q0 -75 26.5 -119t79.5 -44v-12q-53 0 -79.5 -44t-26.5 -119v-53q0 -168 -116 -168v10q106 0 106 158v53q0 146 84 169q-84 23 -84 169v53q0 158 -106 158v10q116 0 116 -168z" />
<glyph unicode="~" horiz-adv-x="683" d="M195 405q43 0 81.5 -14t64 -30.5t65 -30.5t83.5 -14q63 0 63 89h75q0 -114 -138 -114q-45 0 -84.5 14t-64.5 30.5t-63.5 30.5t-81.5 14q-64 0 -64 -90h-75q0 115 139 115z" />
<glyph unicode="&#xa1;" horiz-adv-x="342" d="M170 585q43 0 68.5 -22.5t25.5 -60.5q0 -36 -25.5 -58.5t-68.5 -22.5q-44 0 -68 22t-24 59q0 39 24 61t68 22zM158 357h25l74 -563h-173z" />
<glyph unicode="&#xa2;" horiz-adv-x="625" d="M328 68v363q-54 -3 -85 -50t-31 -131q0 -174 116 -182zM46 250q0 124 74.5 194t207.5 71v79h10v-79q30 0 53.5 -2.5t56.5 -13t57 -28t46 -51t33 -78.5l-155 -10q7 48 -20 73t-71 26v-363h1q48 0 73 28t17 72l155 -10q-11 -45 -33 -78.5t-46 -51t-57 -28t-56.5 -13 t-53.5 -2.5v-73h-10v73q-133 1 -207.5 71t-74.5 194z" />
<glyph unicode="&#xa3;" horiz-adv-x="666" d="M198 230q0 17 -5 35h-131v25h122q-12 25 -38 58t-47.5 58t-38.5 63t-17 78q0 97 74 157.5t214 60.5q116 0 198 -53.5t109 -163.5l-180 -37q17 75 -15.5 123.5t-103.5 48.5q-57 0 -89.5 -34.5t-32.5 -97.5t26 -138.5t28 -122.5h154v-25h-154q-6 -96 -102 -146h453v-119 h-556v119q132 2 132 111z" />
<glyph unicode="&#xa4;" horiz-adv-x="420" d="M22 349q0 82 49 133l-58 58l7 7l58 -58q51 48 133 48q80 0 132 -47l57 57l7 -7l-57 -57q49 -52 49 -134t-48 -133l56 -56l-7 -7l-56 56q-51 -49 -133 -49q-83 0 -135 49l-56 -56l-7 7l56 56q-47 52 -47 133zM111 349q0 -46 27 -73t73 -27q45 0 72 27t27 73q0 45 -27 72 t-72 27q-46 0 -73 -27t-27 -72z" />
<glyph unicode="&#xa5;" horiz-adv-x="697" d="M199 749l218 -466h6l222 466h25l-222 -466h112v-10h-117l-10 -23v-85h127v-10h-127v-155h-174v155h-124v10h124v85l-10 23h-114v10h109l-218 466h173z" />
<glyph unicode="&#xa6;" horiz-adv-x="271" d="M141 419h-10v346h10v-346zM141 -88h-10v346h10v-346z" />
<glyph unicode="&#xa7;" horiz-adv-x="656" d="M584 592l-179 -10q12 44 -6.5 68.5t-60.5 24.5q-40 0 -66.5 -23.5t-26.5 -59.5q0 -42 36.5 -63.5t88 -27.5t103.5 -13t88 -32t35 -73q0 -48 -37.5 -83t-98.5 -53q65 -11 101 -33.5t35 -73.5q0 -69 -73 -112t-174 -43q-244 0 -290 167l198 24q-14 -53 8 -80t67 -27 q44 0 69 23t25 60q0 31 -19.5 51t-50.5 29.5t-68.5 15.5t-74.5 13t-68 18t-50.5 35t-19.5 60q0 48 44.5 80t116.5 45q-37 6 -61 13t-49.5 19.5t-38 34t-12.5 51.5q0 64 69.5 103.5t178.5 39.5q45 0 86 -8t80.5 -26t64.5 -52t30 -82zM317 270l-22 16q60 3 95.5 31.5 t35.5 77.5q0 42 -38 65q-63 -1 -103 -32.5t-40 -78.5q0 -57 72 -79z" />
<glyph unicode="&#xa8;" horiz-adv-x="461" d="M129 690q0 22 12.5 35.5t30.5 13.5t29.5 -13.5t11.5 -35.5t-11.5 -35t-29.5 -13q-19 0 -31 13t-12 35zM248 690q0 22 12.5 35.5t30.5 13.5t29.5 -13.5t11.5 -35.5t-11.5 -35t-29.5 -13q-19 0 -31 13t-12 35z" />
<glyph unicode="&#xa9;" horiz-adv-x="821" d="M44 350q0 165 100.5 265.5t265.5 100.5t265.5 -100.5t100.5 -265.5t-100.5 -265.5t-265.5 -100.5t-265.5 100.5t-100.5 265.5zM54 350q0 -160 98 -258t258 -98t258 98t98 258t-98 258t-258 98t-258 -98t-98 -258zM505 244l150 -33q-32 -64 -95 -98t-144 -34 q-112 0 -197.5 76t-85.5 198q0 121 83.5 194.5t195.5 73.5q80 0 144.5 -30t96.5 -91l-150 -44q-2 43 -21 60t-53 17q-50 0 -86.5 -49t-36.5 -132q0 -85 34.5 -135t84.5 -50q69 0 80 77z" />
<glyph unicode="&#xaa;" horiz-adv-x="441" d="M249 709q76 0 125 -35t49 -104v-204h-121v176q-18 -6 -28 -28t-15.5 -48t-15 -51t-33.5 -42t-62 -17q-50 0 -78.5 26t-28.5 69q0 28 12.5 49t33.5 32.5t47 19t53.5 9t54 3t46.5 -0.5h14v2q0 45 -11 60q-17 23 -60 23q-39 0 -53.5 -19t-3.5 -52l-102 23q5 109 177 109z M282 551q-59 1 -93.5 -9.5t-34.5 -42.5q0 -18 11.5 -30t32.5 -12q23 0 34.5 17t22 39.5t27.5 31.5v6z" />
<glyph unicode="&#xab;" horiz-adv-x="518" d="M279 504v-93l-226 -179l226 -181v-25l-242 193v91zM467 504v-93l-225 -179l225 -181v-25l-241 193v91z" />
<glyph unicode="&#xac;" horiz-adv-x="541" d="M55 353v10h417v-214h-10v204h-407z" />
<glyph unicode="&#xad;" horiz-adv-x="370" d="M61 353v10h249v-10h-249z" />
<glyph unicode="&#xae;" horiz-adv-x="437" d="M31 617q0 85 51 136t136 51t136 -51t51 -136t-51 -135.5t-136 -50.5t-136 50.5t-51 135.5zM41 617q0 -79 48.5 -127.5t128.5 -48.5t128.5 48.5t48.5 127.5q0 80 -48.5 128.5t-128.5 48.5t-128.5 -48.5t-48.5 -128.5zM179 490h-52v260h91q107 0 107 -74q0 -77 -104 -79 l107 -107h-75l-45 107h-29v-107zM179 607h22q31 0 49 17t18 47q0 31 -14 42.5t-53 11.5h-22v-118z" />
<glyph unicode="&#xaf;" horiz-adv-x="503" d="M153 647v10h197v-10h-197z" />
<glyph unicode="&#xb0;" horiz-adv-x="420" d="M55 572q0 70 42.5 112.5t112.5 42.5q69 0 111.5 -42.5t42.5 -112.5q0 -69 -42.5 -111.5t-111.5 -42.5q-70 0 -112.5 42.5t-42.5 111.5zM115 572q0 -42 26 -68t69 -26q42 0 68 26t26 68q0 43 -26 69t-68 26q-43 0 -69 -26t-26 -69z" />
<glyph unicode="&#xb1;" horiz-adv-x="556" d="M66 353v10h207v207h10v-207h208v-10h-208v-207h-10v207h-207zM66 75v10h425v-10h-425z" />
<glyph unicode="&#xb2;" horiz-adv-x="474" d="M58 416v58q42 4 83 20t78.5 43.5t60.5 73t23 101.5q0 45 -20 69t-56 24q-40 0 -59.5 -27t-17.5 -70l-94 55q26 39 73 64t107 25q69 0 118 -35t49 -101q0 -64 -52 -124.5t-133 -107.5h199v-68h-359z" />
<glyph unicode="&#xb3;" horiz-adv-x="475" d="M162 647v14q112 2 112 83q0 26 -18 43.5t-49 17.5q-40 0 -60 -28t-17 -71l-96 56q25 40 73.5 65.5t108.5 25.5q67 0 113.5 -29.5t46.5 -74.5q0 -72 -121 -95q147 -24 147 -122q0 -57 -49.5 -90t-136.5 -33q-62 0 -110.5 25.5t-74.5 65.5l96 56q-6 -41 20 -70t69 -29 q40 0 62 21.5t22 63.5q0 105 -138 105z" />
<glyph unicode="&#xb4;" horiz-adv-x="505" d="M305 769q-16 -38 -39.5 -77t-39.5 -58l-15 -20h-10q44 69 74 155h30z" />
<glyph unicode="&#xb6;" horiz-adv-x="615" d="M235 760h316v-890h-10v860h-110v-860h-10q0 426 -1 439q-50 -79 -172 -79q-112 0 -162 62.5t-50 202.5q0 265 199 265z" />
<glyph unicode="&#xb7;" horiz-adv-x="386" d="M99 367q0 38 25.5 60.5t70.5 22.5t68.5 -22.5t23.5 -60.5q0 -40 -23.5 -62.5t-68.5 -22.5t-70.5 23t-25.5 62z" />
<glyph unicode="&#xb8;" horiz-adv-x="607" d="M342 -143q0 62 -67 80l38 63h25l-30 -48q52 0 92 -28t40 -81q0 -45 -32 -69t-81 -24q-81 0 -127 49l56 57q13 -51 46 -51q40 0 40 52z" />
<glyph unicode="&#xb9;" horiz-adv-x="273" d="M65 685l-18 59q26 3 36 26t12 75h148v-428h-96l1 397h-5q2 -62 -24 -95.5t-54 -33.5z" />
<glyph unicode="&#xba;" horiz-adv-x="442" d="M47 532q0 176 188 176q195 0 195 -176q0 -175 -195 -175q-188 0 -188 175zM167 530q0 -58 13.5 -86.5t56.5 -28.5q46 0 59 27.5t13 87.5q0 66 -14 92.5t-58 26.5q-43 0 -56.5 -26.5t-13.5 -92.5z" />
<glyph unicode="&#xbb;" horiz-adv-x="518" d="M239 479v25l242 -193v-91l-242 -194v93l225 179zM50 479v25l242 -193v-91l-242 -194v93l226 179z" />
<glyph unicode="&#xbc;" horiz-adv-x="824" d="M65 561l-18 59q26 3 36 26t12 75h148v-428h-96l1 397h-5q2 -62 -24 -95.5t-54 -33.5zM224 0l364 717h10l-364 -717h-10zM748 428v-272h40v-69h-40v-87h-100v87h-227v6l221 335h106zM477 156h171l1 261z" />
<glyph unicode="&#xbd;" horiz-adv-x="930" d="M65 561l-18 59q26 3 36 26t12 75h148v-428h-96l1 397h-5q2 -62 -24 -95.5t-54 -33.5zM212 0l364 717h10l-364 -717h-10zM515 0v58q42 4 83 20t78.5 43.5t60.5 73t23 101.5q0 45 -20 69t-56 24q-40 0 -59.5 -27t-17.5 -70l-94 55q26 39 73 64t107 25q69 0 118 -35t49 -101 q0 -64 -52 -124.5t-133 -107.5h199v-68h-359z" />
<glyph unicode="&#xbe;" horiz-adv-x="916" d="M160 528v14q110 2 110 82q0 25 -18 42t-48 17q-40 0 -59.5 -27.5t-16.5 -69.5l-95 55q25 39 72.5 64t107.5 25q66 0 111.5 -29t45.5 -73q0 -72 -119 -93q144 -24 144 -120q0 -55 -48.5 -88t-133.5 -33q-61 0 -109 25t-73 64l94 55q-6 -41 19.5 -69t68.5 -28 q39 0 60.5 21.5t21.5 61.5q0 104 -135 104zM318 0l364 717h10l-364 -717h-10zM839 428v-272h40v-69h-40v-87h-100v87h-227v6l221 335h106zM568 156h171l1 261z" />
<glyph unicode="&#xbf;" horiz-adv-x="638" d="M434 502q0 -36 -25.5 -58.5t-68.5 -22.5q-44 0 -67.5 22t-23.5 59q0 39 23.5 61t67.5 22q43 0 68.5 -22.5t25.5 -60.5zM328 357h25q0 -45 -15.5 -83.5t-37.5 -67t-44 -58.5t-37.5 -73t-15.5 -96q0 -55 31.5 -86.5t88.5 -31.5q68 0 104.5 48t31.5 122l164 -96 q-43 -68 -128 -112t-187 -44q-118 0 -198.5 49t-80.5 144q0 52 31 96t74.5 74.5t87.5 60.5t75 69t31 85z" />
<glyph unicode="&#xc0;" d="M299 937h30q13 -38 31.5 -77t30.5 -58l12 -20h-10q-57 69 -94 155zM673 0l-93 267h-309l-91 -267h-173l257 750h173l261 -750h-25zM280 292h291l-147 422z" />
<glyph unicode="&#xc1;" d="M403 937q-16 -38 -39.5 -77t-39.5 -58l-15 -20h-10q44 69 74 155h30zM673 0l-93 267h-309l-91 -267h-173l257 750h173l261 -750h-25zM280 292h291l-147 422z" />
<glyph unicode="&#xc2;" d="M227 782h-15q10 7 25 19t47 51t45 79h45q13 -40 42.5 -77.5t51.5 -54.5l23 -17h-15q-10 6 -25.5 16.5t-49.5 45t-50 70.5q-16 -36 -47 -69t-54 -48zM673 0l-93 267h-309l-91 -267h-173l257 750h173l261 -750h-25zM280 292h291l-147 422z" />
<glyph unicode="&#xc3;" d="M280 871q26 0 66.5 -34.5t71.5 -34.5q36 0 36 69h30q0 -37 -16.5 -58t-45.5 -21q-32 0 -73.5 34.5t-64.5 34.5q-36 0 -36 -69h-30q0 37 16.5 58t45.5 21zM673 0l-93 267h-309l-91 -267h-173l257 750h173l261 -750h-25zM280 292h291l-147 422z" />
<glyph unicode="&#xc4;" d="M250 852q0 22 12.5 35.5t30.5 13.5t29.5 -13.5t11.5 -35.5t-11.5 -35t-29.5 -13q-19 0 -31 13t-12 35zM369 852q0 22 12.5 35.5t30.5 13.5t29.5 -13.5t11.5 -35.5t-11.5 -35t-29.5 -13q-19 0 -31 13t-12 35zM673 0l-93 267h-309l-91 -267h-173l257 750h173l261 -750h-25z M280 292h291l-147 422z" />
<glyph unicode="&#xc5;" d="M262 867q0 39 23 62t66 23t66 -23t23 -62q0 -38 -23 -61.5t-66 -23.5q-42 0 -65.5 23.5t-23.5 61.5zM271 867q0 -34 20.5 -55t59.5 -21q37 0 58.5 21t21.5 55t-21 54.5t-59 20.5q-39 0 -59.5 -20t-20.5 -55zM673 0l-93 267h-309l-91 -267h-173l257 750h173l261 -750h-25z M280 292h291l-147 422z" />
<glyph unicode="&#xc6;" horiz-adv-x="1084" d="M180 0h-173l257 750h777v-112h-327v-337h277v-25h-277v-164h327v-112h-501v267h-269zM280 292h260v346h-141z" />
<glyph unicode="&#xc7;" horiz-adv-x="756" d="M613 206l105 -99q-94 -122 -276 -122q-25 0 -38 1l-21 -34q52 0 92 -28t40 -81q0 -45 -32 -69t-81 -24q-81 0 -127 49l56 57q13 -51 46 -51q40 0 40 52q0 62 -67 80l31 52q-150 19 -238 123.5t-88 263.5q0 174 102 281.5t275 107.5q177 0 286 -105l-146 -112 q-14 135 -144 135q-97 0 -148.5 -83t-51.5 -225q0 -129 54 -215t158 -85q69 1 109.5 35t63.5 96z" />
<glyph unicode="&#xc8;" horiz-adv-x="612" d="M270 937h30q13 -38 31.5 -77t30.5 -58l12 -20h-10q-57 69 -94 155zM68 0v750h501v-112h-327v-337h277v-25h-277v-164h327v-112h-501z" />
<glyph unicode="&#xc9;" horiz-adv-x="612" d="M375 937q-16 -38 -39.5 -77t-39.5 -58l-15 -20h-10q44 69 74 155h30zM68 0v750h501v-112h-327v-337h277v-25h-277v-164h327v-112h-501z" />
<glyph unicode="&#xca;" horiz-adv-x="612" d="M198 782h-15q10 7 25 19t47 51t45 79h45q13 -40 42.5 -77.5t52.5 -54.5l22 -17h-15q-10 6 -25.5 16.5t-49.5 45t-50 70.5q-16 -36 -47 -69t-54 -48zM68 0v750h501v-112h-327v-337h277v-25h-277v-164h327v-112h-501z" />
<glyph unicode="&#xcb;" horiz-adv-x="612" d="M221 852q0 22 12.5 35.5t30.5 13.5t29.5 -13.5t11.5 -35.5t-11.5 -35t-29.5 -13q-19 0 -31 13t-12 35zM340 852q0 22 12.5 35.5t30.5 13.5t29.5 -13.5t11.5 -35.5t-11.5 -35t-29.5 -13q-19 0 -31 13t-12 35zM68 0v750h501v-112h-327v-337h277v-25h-277v-164h327v-112 h-501z" />
<glyph unicode="&#xcc;" horiz-adv-x="249" d="M73 937h30q13 -38 31.5 -77t30.5 -58l12 -20h-10q-57 69 -94 155zM211 0h-173v750h173v-750z" />
<glyph unicode="&#xcd;" horiz-adv-x="249" d="M177 937q-16 -38 -39.5 -77t-39.5 -58l-15 -20h-10q44 69 74 155h30zM211 0h-173v750h173v-750z" />
<glyph unicode="&#xce;" horiz-adv-x="249" d="M1 782h-16q10 7 25.5 19t47.5 51t45 79h45q13 -40 42.5 -77.5t51.5 -54.5l23 -17h-15q-10 6 -25.5 16.5t-49.5 45t-50 70.5q-16 -36 -47 -69t-54 -48zM211 0h-173v750h173v-750z" />
<glyph unicode="&#xcf;" horiz-adv-x="249" d="M23 852q0 22 12.5 35.5t30.5 13.5t29.5 -13.5t11.5 -35.5t-11.5 -35t-29.5 -13q-19 0 -31 13t-12 35zM142 852q0 22 12.5 35.5t30.5 13.5t29.5 -13.5t11.5 -35.5t-11.5 -35t-29.5 -13q-19 0 -31 13t-12 35zM211 0h-173v750h173v-750z" />
<glyph unicode="&#xd0;" horiz-adv-x="753" d="M359 0h-275v370h-65v10h65v370h277q152 0 244 -93t92 -265q0 -195 -87.5 -293.5t-250.5 -98.5zM258 81h55q100 0 155.5 77t55.5 236q0 111 -21 169.5t-64 79.5t-124 21h-57v-284h123v-10h-123v-289z" />
<glyph unicode="&#xd1;" horiz-adv-x="806" d="M332 871q26 0 66.5 -34.5t71.5 -34.5q36 0 36 69h30q0 -37 -16.5 -58t-45.5 -21q-32 0 -73.5 34.5t-64.5 34.5q-36 0 -36 -69h-30q0 37 16.5 58t45.5 21zM242 0h-174v750h185l311 -717v717h173v-750h-184l-311 715v-715z" />
<glyph unicode="&#xd2;" horiz-adv-x="856" d="M376 937h30q13 -38 31.5 -77t30.5 -58l12 -20h-10q-57 69 -94 155zM39 376q0 205 92 297t297 92t297.5 -92t92.5 -297q0 -206 -92.5 -298.5t-297.5 -92.5t-297 92.5t-92 298.5zM205 372q0 -168 51.5 -236.5t171.5 -68.5q119 0 171 68.5t52 236.5t-52.5 239.5t-170.5 71.5 q-119 0 -171 -71t-52 -240z" />
<glyph unicode="&#xd3;" horiz-adv-x="856" d="M480 937q-16 -38 -39.5 -77t-38.5 -58l-16 -20h-10q44 69 74 155h30zM39 376q0 205 92 297t297 92t297.5 -92t92.5 -297q0 -206 -92.5 -298.5t-297.5 -92.5t-297 92.5t-92 298.5zM205 372q0 -168 51.5 -236.5t171.5 -68.5q119 0 171 68.5t52 236.5t-52.5 239.5 t-170.5 71.5q-119 0 -171 -71t-52 -240z" />
<glyph unicode="&#xd4;" horiz-adv-x="856" d="M304 782h-15q10 7 25 19t47 51t45 79h45q13 -40 42.5 -77.5t52.5 -54.5l22 -17h-15q-10 6 -25.5 16.5t-49.5 45t-50 70.5q-16 -36 -47 -69t-54 -48zM39 376q0 205 92 297t297 92t297.5 -92t92.5 -297q0 -206 -92.5 -298.5t-297.5 -92.5t-297 92.5t-92 298.5zM205 372 q0 -168 51.5 -236.5t171.5 -68.5q119 0 171 68.5t52 236.5t-52.5 239.5t-170.5 71.5q-119 0 -171 -71t-52 -240z" />
<glyph unicode="&#xd5;" horiz-adv-x="856" d="M357 871q26 0 66.5 -34.5t71.5 -34.5q36 0 36 69h30q0 -37 -16.5 -58t-45.5 -21q-32 0 -73.5 34.5t-64.5 34.5q-36 0 -36 -69h-30q0 37 16.5 58t45.5 21zM39 376q0 205 92 297t297 92t297.5 -92t92.5 -297q0 -206 -92.5 -298.5t-297.5 -92.5t-297 92.5t-92 298.5z M205 372q0 -168 51.5 -236.5t171.5 -68.5q119 0 171 68.5t52 236.5t-52.5 239.5t-170.5 71.5q-119 0 -171 -71t-52 -240z" />
<glyph unicode="&#xd6;" horiz-adv-x="856" d="M327 852q0 22 12.5 35.5t30.5 13.5t29.5 -13.5t11.5 -35.5t-11.5 -35t-29.5 -13q-19 0 -31 13t-12 35zM446 852q0 22 12.5 35.5t30.5 13.5t29.5 -13.5t11.5 -35.5t-11.5 -35t-29.5 -13q-19 0 -31 13t-12 35zM39 376q0 205 92 297t297 92t297.5 -92t92.5 -297 q0 -206 -92.5 -298.5t-297.5 -92.5t-297 92.5t-92 298.5zM205 372q0 -168 51.5 -236.5t171.5 -68.5q119 0 171 68.5t52 236.5t-52.5 239.5t-170.5 71.5q-119 0 -171 -71t-52 -240z" />
<glyph unicode="&#xd7;" horiz-adv-x="478" d="M86 505l7 7l146 -147l147 147l7 -7l-147 -147l147 -147l-7 -7l-147 147l-146 -146l-7 7l146 146z" />
<glyph unicode="&#xd8;" horiz-adv-x="889" d="M55 376q0 205 92 297t297 92q65 0 119 -9l6 18h10l-6 -20q135 -25 198 -117t63 -261q0 -206 -92.5 -298.5t-297.5 -92.5q-60 0 -105 7l-10 -32h-10l10 33q-143 23 -208.5 115.5t-65.5 267.5zM221 372q0 -133 32 -202.5t102 -91.5l182 591q-38 14 -93 14q-119 0 -171 -71 t-52 -240zM546 666l-182 -590q36 -9 80 -9q119 0 171 68.5t52 236.5q0 127 -29 197.5t-92 96.5z" />
<glyph unicode="&#xd9;" horiz-adv-x="731" d="M313 937h30q13 -38 31.5 -77t30.5 -58l12 -20h-10q-57 69 -94 155zM63 256v494h174v-494q-8 -102 19 -145.5t109 -43.5q84 0 112 44.5t17 144.5v494h173v-494q0 -271 -302 -271t-302 271z" />
<glyph unicode="&#xda;" horiz-adv-x="731" d="M418 937q-16 -38 -39.5 -77t-38.5 -58l-16 -20h-10q44 69 74 155h30zM63 256v494h174v-494q-8 -102 19 -145.5t109 -43.5q84 0 112 44.5t17 144.5v494h173v-494q0 -271 -302 -271t-302 271z" />
<glyph unicode="&#xdb;" horiz-adv-x="731" d="M241 782h-15q10 7 25 19t47 51t45 79h45q13 -40 42.5 -77.5t51.5 -54.5l23 -17h-15q-10 6 -25.5 16.5t-49.5 45t-50 70.5q-16 -36 -47 -69t-54 -48zM63 256v494h174v-494q-8 -102 19 -145.5t109 -43.5q84 0 112 44.5t17 144.5v494h173v-494q0 -271 -302 -271t-302 271z " />
<glyph unicode="&#xdc;" horiz-adv-x="731" d="M264 852q0 22 12.5 35.5t30.5 13.5t29.5 -13.5t11.5 -35.5t-11.5 -35t-29.5 -13q-19 0 -31 13t-12 35zM383 852q0 22 12.5 35.5t30.5 13.5t29.5 -13.5t11.5 -35.5t-11.5 -35t-29.5 -13q-19 0 -31 13t-12 35zM63 256v494h174v-494q-8 -102 19 -145.5t109 -43.5 q84 0 112 44.5t17 144.5v494h173v-494q0 -271 -302 -271t-302 271z" />
<glyph unicode="&#xdd;" horiz-adv-x="635" d="M427 937q-16 -38 -39.5 -77t-39.5 -58l-15 -20h-10q44 69 74 155h30zM169 749l221 -472l225 472h25l-237 -499v-250h-174v250l-233 499h173z" />
<glyph unicode="&#xde;" horiz-adv-x="748" d="M325 142h-67v-142h-173v750h173v-125h88q161 0 262 -67.5t101 -180.5q0 -77 -53 -131.5t-138 -79t-193 -24.5zM258 167h74q86 0 144.5 52t58.5 147q0 100 -46.5 137t-137.5 37h-93v-373z" />
<glyph unicode="&#xdf;" horiz-adv-x="817" d="M365 762q118 0 198 -54.5t80 -132.5q0 -45 -32 -75.5t-70 -43t-70 -33.5t-32 -49q0 -34 34.5 -54.5t83.5 -32.5t98.5 -26t84 -46t34.5 -82q0 -68 -63 -107.5t-176 -39.5q-60 0 -131 7.5t-103 17.5l14 131q27 -31 76.5 -52t97.5 -21q60 0 95.5 23t35.5 68q0 47 -31.5 77.5 t-77 45t-91 27.5t-77 35.5t-31.5 58.5q0 31 20 52t48 33t56.5 23.5t48.5 31t20 47.5q0 90 -118 90q-69 0 -107.5 -34t-38.5 -103v-544h-151v550q0 92 77.5 152t197.5 60z" />
<glyph unicode="&#xe0;" horiz-adv-x="628" d="M261 694h30q13 -38 31.5 -77t30.5 -59l12 -19h-10q-57 69 -94 155zM328 517q112 0 182.5 -52t70.5 -154v-311h-168v267q-23 -8 -38 -33t-21.5 -56t-18 -65.5t-26 -62.5t-47 -46.5t-80.5 -18.5q-73 0 -115.5 39t-42.5 104q0 42 19 73t49.5 48t70 28.5t80.5 13.5t80 3.5 t69 -1.5h7.5h6.5h7v10q0 61 -13 84q-24 43 -99 43q-60 0 -83 -29t-9 -82l-141 33q9 165 260 165zM383 278q-43 0 -73 -2t-62 -9.5t-49 -26t-17 -46.5q0 -30 18.5 -49t51.5 -19q27 0 45 18t25.5 40.5t23.5 48.5t37 37v8z" />
<glyph unicode="&#xe1;" horiz-adv-x="628" d="M365 694q-16 -38 -39.5 -77t-39.5 -59l-15 -19h-10q44 69 74 155h30zM328 517q112 0 182.5 -52t70.5 -154v-311h-168v267q-23 -8 -38 -33t-21.5 -56t-18 -65.5t-26 -62.5t-47 -46.5t-80.5 -18.5q-73 0 -115.5 39t-42.5 104q0 42 19 73t49.5 48t70 28.5t80.5 13.5t80 3.5 t69 -1.5h7.5h6.5h7v10q0 61 -13 84q-24 43 -99 43q-60 0 -83 -29t-9 -82l-141 33q9 165 260 165zM383 278q-43 0 -73 -2t-62 -9.5t-49 -26t-17 -46.5q0 -30 18.5 -49t51.5 -19q27 0 45 18t25.5 40.5t23.5 48.5t37 37v8z" />
<glyph unicode="&#xe2;" horiz-adv-x="628" d="M189 539h-15q10 7 25 19t47 51t45 79h45q13 -40 42.5 -77.5t51.5 -54.5l23 -17h-15q-10 6 -25.5 16.5t-49.5 45t-50 70.5q-16 -36 -47 -69t-54 -48zM328 517q112 0 182.5 -52t70.5 -154v-311h-168v267q-23 -8 -38 -33t-21.5 -56t-18 -65.5t-26 -62.5t-47 -46.5 t-80.5 -18.5q-73 0 -115.5 39t-42.5 104q0 42 19 73t49.5 48t70 28.5t80.5 13.5t80 3.5t69 -1.5h7.5h6.5h7v10q0 61 -13 84q-24 43 -99 43q-60 0 -83 -29t-9 -82l-141 33q9 165 260 165zM383 278q-43 0 -73 -2t-62 -9.5t-49 -26t-17 -46.5q0 -30 18.5 -49t51.5 -19 q27 0 45 18t25.5 40.5t23.5 48.5t37 37v8z" />
<glyph unicode="&#xe3;" horiz-adv-x="628" d="M242 628q26 0 66.5 -34.5t71.5 -34.5q36 0 36 69h30q0 -37 -16.5 -58t-45.5 -21q-32 0 -73.5 34.5t-64.5 34.5q-36 0 -36 -69h-30q0 37 16.5 58t45.5 21zM328 517q112 0 182.5 -52t70.5 -154v-311h-168v267q-23 -8 -38 -33t-21.5 -56t-18 -65.5t-26 -62.5t-47 -46.5 t-80.5 -18.5q-73 0 -115.5 39t-42.5 104q0 42 19 73t49.5 48t70 28.5t80.5 13.5t80 3.5t69 -1.5h7.5h6.5h7v10q0 61 -13 84q-24 43 -99 43q-60 0 -83 -29t-9 -82l-141 33q9 165 260 165zM383 278q-43 0 -73 -2t-62 -9.5t-49 -26t-17 -46.5q0 -30 18.5 -49t51.5 -19 q27 0 45 18t25.5 40.5t23.5 48.5t37 37v8z" />
<glyph unicode="&#xe4;" horiz-adv-x="628" d="M212 608q0 22 12.5 35.5t30.5 13.5t29.5 -13.5t11.5 -35.5t-11.5 -35t-29.5 -13q-19 0 -31 13t-12 35zM331 608q0 22 12.5 35.5t30.5 13.5t29.5 -13.5t11.5 -35.5t-11.5 -35t-29.5 -13q-19 0 -31 13t-12 35zM328 517q112 0 182.5 -52t70.5 -154v-311h-168v267 q-23 -8 -38 -33t-21.5 -56t-18 -65.5t-26 -62.5t-47 -46.5t-80.5 -18.5q-73 0 -115.5 39t-42.5 104q0 42 19 73t49.5 48t70 28.5t80.5 13.5t80 3.5t69 -1.5h7.5h6.5h7v10q0 61 -13 84q-24 43 -99 43q-60 0 -83 -29t-9 -82l-141 33q9 165 260 165zM383 278q-43 0 -73 -2 t-62 -9.5t-49 -26t-17 -46.5q0 -30 18.5 -49t51.5 -19q27 0 45 18t25.5 40.5t23.5 48.5t37 37v8z" />
<glyph unicode="&#xe5;" horiz-adv-x="628" d="M224 624q0 38 23 61.5t66 23.5t66 -23t23 -62q0 -38 -23 -61.5t-66 -23.5q-42 0 -65.5 23.5t-23.5 61.5zM233 624q0 -34 20.5 -55t59.5 -21q37 0 58.5 21t21.5 55t-21 54.5t-59 20.5q-39 0 -59.5 -20t-20.5 -55zM328 517q112 0 182.5 -52t70.5 -154v-311h-168v267 q-23 -8 -38 -33t-21.5 -56t-18 -65.5t-26 -62.5t-47 -46.5t-80.5 -18.5q-73 0 -115.5 39t-42.5 104q0 42 19 73t49.5 48t70 28.5t80.5 13.5t80 3.5t69 -1.5h7.5h6.5h7v10q0 61 -13 84q-24 43 -99 43q-60 0 -83 -29t-9 -82l-141 33q9 165 260 165zM383 278q-43 0 -73 -2 t-62 -9.5t-49 -26t-17 -46.5q0 -30 18.5 -49t51.5 -19q27 0 45 18t25.5 40.5t23.5 48.5t37 37v8z" />
<glyph unicode="&#xe6;" horiz-adv-x="1023" d="M598 213q194 42 220 131q13 41 -9.5 64.5t-67.5 23.5q-66 0 -105.5 -51t-39.5 -132q0 -12 2 -36zM400 278q-43 0 -73 -2t-62 -9.5t-49 -26t-17 -46.5q0 -29 18.5 -48.5t50.5 -19.5q27 0 45 18t26 40.5t24 48.5t37 37v8zM345 517q122 0 189 -58q79 57 200 57q92 0 158 -40 t58 -107q-2 -21 -13 -39.5t-31.5 -33.5t-40 -26.5t-51.5 -21.5t-54 -16.5t-58.5 -13.5t-52.5 -10t-49 -8q11 -59 46 -96t95 -37q44 0 63 27.5t10 72.5l167 -10q-50 -173 -261 -173q-78 0 -137 25t-91 65.5t-47.5 84.5t-15.5 90v18q-23 -8 -38 -32.5t-21.5 -55.5t-17.5 -65.5 t-25.5 -63t-47 -47t-80.5 -18.5q-73 0 -115.5 39t-42.5 104q0 42 19 73t49.5 48t69.5 28.5t80 13.5t80 3.5t69 -1.5h7.5h6.5h7v10q0 60 -11 82q-23 45 -100 45q-60 0 -83 -29t-9 -82l-141 33q9 165 260 165z" />
<glyph unicode="&#xe7;" horiz-adv-x="609" d="M42 250q0 125 75.5 195t210.5 70q30 0 53.5 -2t57.5 -12t59 -27.5t48 -51t34 -80.5l-155 -10q7 49 -21 74.5t-73 25.5q-57 0 -90 -47.5t-33 -134.5q0 -182 127 -182q48 0 73 28t17 72l155 -10q-24 -100 -90 -136.5t-176 -36.5l-21 -33q52 0 92 -28t40 -81q0 -45 -32 -69 t-81 -24q-81 0 -127 49l56 57q13 -51 46 -51q40 0 40 52q0 62 -67 80l30 50q-118 10 -183 79t-65 184z" />
<glyph unicode="&#xe8;" horiz-adv-x="603" d="M273 694h30q13 -38 31.5 -77t30.5 -59l12 -19h-10q-57 69 -94 155zM195 214q194 40 220 130q12 41 -10.5 65t-67.5 24q-66 0 -105.5 -51t-39.5 -132q0 -18 3 -36zM26 250q0 116 81.5 191.5t222.5 75.5q92 0 158 -40t59 -107q-2 -21 -13 -39.5t-31.5 -33.5t-40 -26.5 t-52 -21.5t-54 -16.5t-58.5 -13.5t-52 -10t-49 -8q10 -59 45 -96t96 -37q44 0 63 27.5t10 72.5l167 -10q-51 -173 -261 -173q-78 0 -137.5 25t-91.5 65.5t-47 84.5t-15 90z" />
<glyph unicode="&#xe9;" horiz-adv-x="603" d="M378 694q-16 -38 -39.5 -77t-38.5 -59l-16 -19h-10q44 69 74 155h30zM195 214q194 40 220 130q12 41 -10.5 65t-67.5 24q-66 0 -105.5 -51t-39.5 -132q0 -18 3 -36zM26 250q0 116 81.5 191.5t222.5 75.5q92 0 158 -40t59 -107q-2 -21 -13 -39.5t-31.5 -33.5t-40 -26.5 t-52 -21.5t-54 -16.5t-58.5 -13.5t-52 -10t-49 -8q10 -59 45 -96t96 -37q44 0 63 27.5t10 72.5l167 -10q-51 -173 -261 -173q-78 0 -137.5 25t-91.5 65.5t-47 84.5t-15 90z" />
<glyph unicode="&#xea;" horiz-adv-x="603" d="M201 539h-15q10 7 25 19t47 51t45 79h45q13 -40 42.5 -77.5t51.5 -54.5l23 -17h-15q-10 6 -25.5 16.5t-49.5 45t-50 70.5q-16 -36 -47 -69t-54 -48zM195 214q194 40 220 130q12 41 -10.5 65t-67.5 24q-66 0 -105.5 -51t-39.5 -132q0 -18 3 -36zM26 250q0 116 81.5 191.5 t222.5 75.5q92 0 158 -40t59 -107q-2 -21 -13 -39.5t-31.5 -33.5t-40 -26.5t-52 -21.5t-54 -16.5t-58.5 -13.5t-52 -10t-49 -8q10 -59 45 -96t96 -37q44 0 63 27.5t10 72.5l167 -10q-51 -173 -261 -173q-78 0 -137.5 25t-91.5 65.5t-47 84.5t-15 90z" />
<glyph unicode="&#xeb;" horiz-adv-x="603" d="M224 608q0 22 12.5 35.5t30.5 13.5t29.5 -13.5t11.5 -35.5t-11.5 -35t-29.5 -13q-19 0 -31 13t-12 35zM343 608q0 22 12.5 35.5t30.5 13.5t29.5 -13.5t11.5 -35.5t-11.5 -35t-29.5 -13q-19 0 -31 13t-12 35zM195 214q194 40 220 130q12 41 -10.5 65t-67.5 24 q-66 0 -105.5 -51t-39.5 -132q0 -18 3 -36zM26 250q0 116 81.5 191.5t222.5 75.5q92 0 158 -40t59 -107q-2 -21 -13 -39.5t-31.5 -33.5t-40 -26.5t-52 -21.5t-54 -16.5t-58.5 -13.5t-52 -10t-49 -8q10 -59 45 -96t96 -37q44 0 63 27.5t10 72.5l167 -10q-51 -173 -261 -173 q-78 0 -137.5 25t-91.5 65.5t-47 84.5t-15 90z" />
<glyph unicode="&#xec;" horiz-adv-x="325" d="M110 694h30q13 -38 31.5 -77t30.5 -59l12 -19h-10q-57 69 -94 155zM247 0h-169v500h169v-500z" />
<glyph unicode="&#xed;" horiz-adv-x="325" d="M214 694q-16 -38 -39.5 -77t-38.5 -59l-16 -19h-10q44 69 74 155h30zM247 0h-169v500h169v-500z" />
<glyph unicode="&#xee;" horiz-adv-x="325" d="M38 539h-15q10 7 25 19t47 51t45 79h45q13 -40 42.5 -77t52.5 -55l22 -17h-15q-10 6 -25.5 16.5t-49.5 45t-50 70.5q-16 -36 -47 -69t-54 -48zM247 0h-169v500h169v-500z" />
<glyph unicode="&#xef;" horiz-adv-x="325" d="M60 608q0 22 12.5 35.5t30.5 13.5t29.5 -13.5t11.5 -35.5t-11.5 -35t-29.5 -13q-19 0 -31 13t-12 35zM179 608q0 22 12.5 35.5t30.5 13.5t29.5 -13.5t11.5 -35.5t-11.5 -35t-29.5 -13q-19 0 -31 13t-12 35zM247 0h-169v500h169v-500z" />
<glyph unicode="&#xf1;" horiz-adv-x="683" d="M263 628q26 0 66.5 -34.5t71.5 -34.5q36 0 36 69h30q0 -37 -16.5 -58t-45.5 -21q-32 0 -73.5 34.5t-64.5 34.5q-36 0 -36 -69h-30q0 37 16.5 58t45.5 21zM441 517q101 0 144 -49.5t43 -161.5v-306h-168v304q0 66 -20 96t-69 30q-137 0 -137 -430h-172v500h154l-6 -396h9 q3 109 18 187t35 121t50.5 67.5t56.5 31t62 6.5z" />
<glyph unicode="&#xf2;" horiz-adv-x="620" d="M253 694h30q13 -38 31.5 -77t30.5 -59l12 -19h-10q-57 69 -94 155zM26 250q0 137 70 201t209 64q289 0 289 -265t-289 -265q-139 0 -209 64t-70 201zM193 247q0 -35 2.5 -59.5t9.5 -48.5t19 -39t33 -24t50 -9q31 0 53 9t34.5 23.5t19.5 39.5t9 48.5t2 59.5 q0 102 -23.5 144t-93.5 42q-69 0 -92 -42t-23 -144z" />
<glyph unicode="&#xf3;" horiz-adv-x="620" d="M357 694q-16 -38 -39.5 -77t-39.5 -59l-15 -19h-10q44 69 74 155h30zM26 250q0 137 70 201t209 64q289 0 289 -265t-289 -265q-139 0 -209 64t-70 201zM193 247q0 -35 2.5 -59.5t9.5 -48.5t19 -39t33 -24t50 -9q31 0 53 9t34.5 23.5t19.5 39.5t9 48.5t2 59.5 q0 102 -23.5 144t-93.5 42q-69 0 -92 -42t-23 -144z" />
<glyph unicode="&#xf4;" horiz-adv-x="620" d="M181 539h-15q10 7 25 19t47 51t45 79h45q13 -40 42.5 -77.5t51.5 -54.5l23 -17h-15q-10 6 -25.5 16.5t-49.5 45t-50 70.5q-16 -36 -47 -69t-54 -48zM26 250q0 137 70 201t209 64q289 0 289 -265t-289 -265q-139 0 -209 64t-70 201zM193 247q0 -35 2.5 -59.5t9.5 -48.5 t19 -39t33 -24t50 -9q31 0 53 9t34.5 23.5t19.5 39.5t9 48.5t2 59.5q0 102 -23.5 144t-93.5 42q-69 0 -92 -42t-23 -144z" />
<glyph unicode="&#xf5;" horiz-adv-x="620" d="M234 628q26 0 66.5 -34.5t71.5 -34.5q36 0 36 69h30q0 -37 -16.5 -58t-45.5 -21q-32 0 -73.5 34.5t-64.5 34.5q-36 0 -36 -69h-30q0 37 16.5 58t45.5 21zM26 250q0 137 70 201t209 64q289 0 289 -265t-289 -265q-139 0 -209 64t-70 201zM193 247q0 -35 2.5 -59.5 t9.5 -48.5t19 -39t33 -24t50 -9q31 0 53 9t34.5 23.5t19.5 39.5t9 48.5t2 59.5q0 102 -23.5 144t-93.5 42q-69 0 -92 -42t-23 -144z" />
<glyph unicode="&#xf6;" horiz-adv-x="620" d="M203 608q0 22 12.5 35.5t30.5 13.5t29.5 -13.5t11.5 -35.5t-11.5 -35t-29.5 -13q-19 0 -31 13t-12 35zM322 608q0 22 12.5 35.5t30.5 13.5t29.5 -13.5t11.5 -35.5t-11.5 -35t-29.5 -13q-19 0 -31 13t-12 35zM26 250q0 137 70 201t209 64q289 0 289 -265t-289 -265 q-139 0 -209 64t-70 201zM193 247q0 -35 2.5 -59.5t9.5 -48.5t19 -39t33 -24t50 -9q31 0 53 9t34.5 23.5t19.5 39.5t9 48.5t2 59.5q0 102 -23.5 144t-93.5 42q-69 0 -92 -42t-23 -144z" />
<glyph unicode="&#xf7;" horiz-adv-x="614" d="M213 546q0 37 26 60t70 23q45 0 68.5 -22.5t23.5 -60.5q0 -40 -23.5 -62.5t-68.5 -22.5t-70.5 23t-25.5 62zM66 353v10h482v-10h-482zM213 188q0 38 25.5 60.5t70.5 22.5t68.5 -22.5t23.5 -60.5q0 -40 -23.5 -62.5t-68.5 -22.5t-70.5 23t-25.5 62z" />
<glyph unicode="&#xf8;" horiz-adv-x="653" d="M42 250q0 137 70 201t209 64q58 0 102 -10l24 58h10l-25 -60q178 -45 178 -253q0 -265 -289 -265q-54 0 -96 9l-18 -43h-10l18 45q-173 43 -173 254zM209 247q0 -124 44 -160l135 332q-25 14 -64 14q-69 0 -92 -42t-23 -144zM396 414l-136 -332q24 -15 63 -15q31 0 53 9 t34.5 23.5t19.5 39.5t9 48.5t2 59.5q0 70 -9.5 109t-35.5 58z" />
<glyph unicode="&#xf9;" horiz-adv-x="665" d="M278 694h30q13 -38 31.5 -77t30.5 -59l12 -19h-10q-57 69 -94 155zM234 -17q-96 0 -137.5 49.5t-41.5 161.5v306h168v-304q0 -67 18.5 -96.5t65.5 -29.5q124 0 124 430h172v-500h-154l6 396h-9q-3 -109 -17 -187t-33 -121t-48 -67.5t-54.5 -31t-59.5 -6.5z" />
<glyph unicode="&#xfa;" horiz-adv-x="665" d="M382 694q-16 -38 -39.5 -77t-38.5 -59l-16 -19h-10q44 69 74 155h30zM234 -17q-96 0 -137.5 49.5t-41.5 161.5v306h168v-304q0 -67 18.5 -96.5t65.5 -29.5q124 0 124 430h172v-500h-154l6 396h-9q-3 -109 -17 -187t-33 -121t-48 -67.5t-54.5 -31t-59.5 -6.5z" />
<glyph unicode="&#xfb;" horiz-adv-x="665" d="M206 539h-15q10 7 25 19t47 51t45 79h45q13 -40 42.5 -77.5t52.5 -54.5l22 -17h-15q-10 6 -25.5 16.5t-49.5 45t-50 70.5q-16 -36 -47 -69t-54 -48zM234 -17q-96 0 -137.5 49.5t-41.5 161.5v306h168v-304q0 -67 18.5 -96.5t65.5 -29.5q124 0 124 430h172v-500h-154l6 396 h-9q-3 -109 -17 -187t-33 -121t-48 -67.5t-54.5 -31t-59.5 -6.5z" />
<glyph unicode="&#xfc;" horiz-adv-x="665" d="M229 608q0 22 12.5 35.5t30.5 13.5t29.5 -13.5t11.5 -35.5t-11.5 -35t-29.5 -13q-19 0 -31 13t-12 35zM348 608q0 22 12.5 35.5t30.5 13.5t29.5 -13.5t11.5 -35.5t-11.5 -35t-29.5 -13q-19 0 -31 13t-12 35zM234 -17q-96 0 -137.5 49.5t-41.5 161.5v306h168v-304 q0 -67 18.5 -96.5t65.5 -29.5q124 0 124 430h172v-500h-154l6 396h-9q-3 -109 -17 -187t-33 -121t-48 -67.5t-54.5 -31t-59.5 -6.5z" />
<glyph unicode="&#xfd;" horiz-adv-x="478" d="M356 694q-16 -38 -39.5 -77t-38.5 -59l-16 -19h-10q44 69 74 155h30zM459 500h25l-224 -676h-25l58 176h-80l-219 500h168l165 -396z" />
<glyph unicode="&#xfe;" horiz-adv-x="711" d="M444 517q94 0 163 -71.5t69 -193.5q0 -128 -65.5 -196.5t-169.5 -68.5q-149 0 -209 135v-372h-154v1000h151l-1 -577h5q11 344 211 344zM250 145q12 -37 46 -55.5t78 -18.5q63 0 99.5 48.5t36.5 134.5q0 89 -32 136t-91 47q-25 0 -45 -10.5t-41 -39.5t-34 -90t-17 -152z " />
<glyph unicode="&#xff;" horiz-adv-x="478" d="M202 608q0 22 12.5 35.5t30.5 13.5t29.5 -13.5t11.5 -35.5t-11.5 -35t-29.5 -13q-19 0 -31 13t-12 35zM321 608q0 22 12.5 35.5t30.5 13.5t29.5 -13.5t11.5 -35.5t-11.5 -35t-29.5 -13q-19 0 -31 13t-12 35zM459 500h25l-224 -676h-25l58 176h-80l-219 500h168l165 -396z " />
<glyph unicode="&#x152;" horiz-adv-x="1477" d="M589 -2v1q-65 -14 -145 -14q-204 0 -296.5 92.5t-92.5 298.5q0 205 92.5 297t296.5 92q86 0 156 -17h490v-112h-327v-337h277v-25h-277v-164h327v-112h-501zM589 120v504q-43 59 -145 59q-118 0 -170 -71t-52 -240q0 -168 51.5 -236.5t170.5 -68.5q102 0 145 53z" />
<glyph unicode="&#x153;" horiz-adv-x="1021" d="M42 250q0 137 70 201t209 64q143 0 215 -65q81 67 212 67q92 0 158 -40t59 -107q-2 -21 -13 -39.5t-31.5 -33.5t-40 -26.5t-52 -21.5t-54 -16.5t-58.5 -13.5t-52 -10t-49 -8q10 -59 45 -96t96 -37q44 0 63 27.5t10 72.5l167 -10q-51 -173 -261 -173q-125 0 -201 63 q-73 -63 -213 -63q-139 0 -209 64t-70 201zM209 247q0 -35 2.5 -59.5t9.5 -48.5t19 -39t33 -24t50 -9q31 0 53 9t34.5 23.5t19.5 39.5t9 48.5t2 59.5q0 102 -23.5 144t-93.5 42q-69 0 -92 -42t-23 -144zM613 214q194 40 220 130q12 41 -10.5 65t-67.5 24q-66 0 -105.5 -51 t-39.5 -132q0 -18 3 -36z" />
<glyph unicode="&#x178;" horiz-adv-x="635" d="M273 852q0 22 12.5 35.5t30.5 13.5t29.5 -13.5t11.5 -35.5t-11.5 -35t-29.5 -13q-19 0 -31 13t-12 35zM392 852q0 22 12.5 35.5t30.5 13.5t29.5 -13.5t11.5 -35.5t-11.5 -35t-29.5 -13q-19 0 -31 13t-12 35zM169 749l221 -472l225 472h25l-237 -499v-250h-174v250 l-233 499h173z" />
<glyph unicode="&#x2c6;" horiz-adv-x="518" d="M135 614h-15q10 7 25 19t47 51t45 79h45q13 -40 42.5 -77.5t51.5 -54.5l23 -17h-15q-10 6 -25.5 16.5t-49.5 45t-50 70.5q-16 -36 -47 -69t-54 -48z" />
<glyph unicode="&#x2dc;" horiz-adv-x="507" d="M182 723q26 0 66.5 -34.5t71.5 -34.5q36 0 36 69h30q0 -37 -16.5 -58t-45.5 -21q-32 0 -73.5 34.5t-64.5 34.5q-36 0 -36 -69h-30q0 37 16.5 58t45.5 21z" />
<glyph unicode="&#x2000;" horiz-adv-x="476" />
<glyph unicode="&#x2001;" horiz-adv-x="952" />
<glyph unicode="&#x2002;" horiz-adv-x="476" />
<glyph unicode="&#x2003;" horiz-adv-x="952" />
<glyph unicode="&#x2004;" horiz-adv-x="317" />
<glyph unicode="&#x2005;" horiz-adv-x="238" />
<glyph unicode="&#x2006;" horiz-adv-x="158" />
<glyph unicode="&#x2007;" horiz-adv-x="158" />
<glyph unicode="&#x2008;" horiz-adv-x="119" />
<glyph unicode="&#x2009;" horiz-adv-x="190" />
<glyph unicode="&#x200a;" horiz-adv-x="52" />
<glyph unicode="&#x2010;" horiz-adv-x="370" d="M61 353v10h249v-10h-249z" />
<glyph unicode="&#x2011;" horiz-adv-x="370" d="M61 353v10h249v-10h-249z" />
<glyph unicode="&#x2012;" horiz-adv-x="370" d="M61 353v10h249v-10h-249z" />
<glyph unicode="&#x2013;" horiz-adv-x="489" d="M36 353v10h417v-10h-417z" />
<glyph unicode="&#x2014;" horiz-adv-x="956" d="M36 353v10h884v-10h-884z" />
<glyph unicode="&#x2018;" horiz-adv-x="298" d="M257 489q0 -37 -26 -60t-70 -23t-68 22.5t-24 60.5q0 75 42 126t113 55l2 -24q-61 -5 -72 -72q103 0 103 -85z" />
<glyph unicode="&#x2019;" horiz-adv-x="298" d="M42 587q0 37 26 60t70 23q45 0 68.5 -22.5t23.5 -60.5q0 -75 -42 -126t-113 -55l-1 24q61 5 71 72q-103 0 -103 85z" />
<glyph unicode="&#x201a;" horiz-adv-x="301" d="M42 40q0 38 25.5 60.5t70.5 22.5q44 0 68 -22.5t24 -60.5q0 -75 -42 -126t-113 -55l-2 24q61 5 72 72q-103 0 -103 85z" />
<glyph unicode="&#x201c;" horiz-adv-x="527" d="M257 489q0 -37 -26 -60t-70 -23t-68 22.5t-24 60.5q0 75 42 126t113 55l2 -24q-61 -5 -72 -72q103 0 103 -85zM486 489q0 -37 -26 -60t-70 -23t-68 22.5t-24 60.5q0 75 42 126t113 55l2 -24q-61 -5 -72 -72q103 0 103 -85z" />
<glyph unicode="&#x201d;" horiz-adv-x="527" d="M271 587q0 37 26 60t70 23q45 0 68.5 -22.5t23.5 -60.5q0 -75 -42 -126t-113 -55l-1 24q61 5 71 72q-103 0 -103 85zM42 587q0 37 26 60t70 23q45 0 68.5 -22.5t23.5 -60.5q0 -75 -42 -126t-113 -55l-1 24q61 5 71 72q-103 0 -103 85z" />
<glyph unicode="&#x201e;" horiz-adv-x="530" d="M271 40q0 38 25.5 60.5t70.5 22.5q44 0 68 -22.5t24 -60.5q0 -75 -42 -126t-113 -55l-2 24q61 5 72 72q-103 0 -103 85zM42 40q0 38 25.5 60.5t70.5 22.5q44 0 68 -22.5t24 -60.5q0 -75 -42 -126t-113 -55l-2 24q61 5 72 72q-103 0 -103 85z" />
<glyph unicode="&#x2022;" horiz-adv-x="417" d="M67 350q0 73 39 115t109 42q64 0 99.5 -42t35.5 -115t-35.5 -115t-99.5 -42q-70 0 -109 42t-39 115z" />
<glyph unicode="&#x2026;" horiz-adv-x="872" d="M74 40q0 38 25.5 60.5t70.5 22.5t68.5 -22.5t23.5 -60.5q0 -40 -23.5 -62.5t-68.5 -22.5t-70.5 23t-25.5 62zM342 40q0 38 25.5 60.5t70.5 22.5t68.5 -22.5t23.5 -60.5q0 -40 -23.5 -62.5t-68.5 -22.5t-70.5 23t-25.5 62zM610 40q0 38 25.5 60.5t70.5 22.5t68.5 -22.5 t23.5 -60.5q0 -40 -23.5 -62.5t-68.5 -22.5t-70.5 23t-25.5 62z" />
<glyph unicode="&#x202f;" horiz-adv-x="190" />
<glyph unicode="&#x2039;" horiz-adv-x="329" d="M279 51v-25l-242 193v91l242 194v-93l-226 -179z" />
<glyph unicode="&#x203a;" horiz-adv-x="329" d="M50 416v88l242 -194v-90l-242 -194v31l226 181z" />
<glyph unicode="&#x205f;" horiz-adv-x="238" />
<glyph unicode="&#x20ac;" horiz-adv-x="734" d="M554 183l143 -82q-87 -116 -249 -116q-130 0 -218.5 87.5t-106.5 232.5h-68v25h65q-2 30 -2 46q0 15 2 47h-65v25h67q18 144 103.5 230.5t214.5 86.5q155 0 250 -95l-145 -112q-7 79 -18.5 102t-57.5 23q-67 0 -114.5 -63.5t-60.5 -171.5h183v-25h-185q-2 -32 -2 -48 q0 -17 2 -45h185v-25h-183q11 -108 53 -173t99 -65q43 0 68 28t40 88z" />
<glyph unicode="&#x2122;" horiz-adv-x="882" d="M24 694v56h312v-56h-119v-339h-78v339h-115zM466 355h-78v395h79l140 -362l136 362h78v-395h-25v328l-123 -328h-78l-129 334v-334z" />
<glyph unicode="&#x25fc;" horiz-adv-x="500" d="M0 500h500v-500h-500v500z" />
</font>
</defs>
</svg>
