<svg viewBox="0 0 190 84" xmlns="http://www.w3.org/2000/svg"><path d="m189.17 43q-18.81 18.64-37.61 37.29c-1.06 1-2.1 2.41-3.41 2.82a4.67 4.67 0 0 1 -3.89-.76c-.71-.6-.9-2.51-.51-3.52a11.67 11.67 0 0 1 2.83-3.42q12.53-12.58 25.09-25.12c1.12-1.13 2.16-2.34 4-4.29h-6.22q-80.78 0-161.53 0c-2.92 0-7.41 1.18-7.46-3.46s4.4-3.54 7.35-3.54q80.76-.08 161.5 0h5.31 2.15l-1.23-1.37c-5.74-5.45-11.54-10.83-17.21-16.32-4.2-4-8.15-8.36-12.43-12.31-2.84-2.62-3.34-5.8-1.79-7.34 1.66-1.25 3-1.48 5.63.91l39.43 39.43z" fill="#fff"/></svg>