<?xml version="1.0" encoding="UTF-8"?>
<svg width="23px" height="24px" viewBox="0 0 23 24" version="1.1" xmlns="http://www.w3.org/2000/svg" xmlns:xlink="http://www.w3.org/1999/xlink">
    <title>arrow-large-light</title>
    <g id="arrow-large-light" stroke="none" stroke-width="1" fill="none" fill-rule="evenodd">
        <path d="M15.8147186,1.70710678 L25.3147186,11.2071068 L26.1006168,11.95 L25.3076118,12.7 L25.2143882,12.7 L15.8147186,22.1 C15.5661905,22.3485281 15.1786883,22.373381 14.9023654,22.1745584 L14.8147186,22.1 C14.5385763,21.8238576 14.5385763,21.3761424 14.8147186,21.1 L14.8147186,21.1 L23.2143882,12.7 L-2.55761184,12.7 C-2.97182541,12.7 -3.30761184,12.3642136 -3.30761184,11.95 C-3.30761184,11.5357864 -2.97182541,11.2 -2.55761184,11.2 L23.3073882,11.2 L14.8147186,2.70710678 C14.5385763,2.43096441 14.5385763,1.98324916 14.8147186,1.70710678 C15.090861,1.43096441 15.5385763,1.43096441 15.8147186,1.70710678 Z" id="Combined-Shape" fill="#F9F9F9" transform="translate(11.396502, 11.903553) rotate(-45.000000) translate(-11.396502, -11.903553) "></path>
    </g>
</svg>