<svg width="2059" height="982" viewBox="0 0 1248 595" version="1.1" xmlns="http://www.w3.org/2000/svg" xmlns:xlink="http://www.w3.org/1999/xlink">
						<title>Path 2</title>
						<g stroke-width="0.3px" fill="none" fill-rule="evenodd">
							<g id="Layout" stroke="#5D606D" fill="none" stroke-width="0.3px">
								<path d="M350.2899,-7.9445803 C366.793245,8.10819645 387.075262,11.4125901 409.878738,14.6681695 C504.527377,28.1808534 712.8547,47.7567992 839.503432,81.8277439 C871.828919,90.5239217 935.075719,107.93756 967.111889,129.340846 C987.758596,143.13486 993.04846,147.922924 1009.73385,166.439798 C1024.43559,182.755287 1050.69352,209.005648 1046.09562,235.331164 C1044.46156,244.687048 1022.85186,251.346808 1019.84962,252.046461 C977.517987,261.911579 912.40554,266.996889 869.248121,256.92005 C858.41042,254.389552 827.038624,245.75016 829.112684,227.409388 C830.241955,217.423319 844.703563,212.911088 852.123277,211.349362 C876.655691,206.185701 886.513738,205.652309 909.114428,205.527969 C1010.12339,204.972259 1068.33426,207.562121 1165.99878,234.517924 C1189.741,241.070874 1248.15196,265.915116 1246.56803,297.470883 C1245.98592,309.067924 1232.22717,317.275042 1224.54035,322.353684 C1202.22388,337.098053 1175.30297,351.605876 1150.94506,363.308211 C1037.54837,417.787703 907.227287,421.883438 784.887645,437.482711 C690.767565,449.483766 596.667871,461.684559 502.722652,474.985357 C459.186424,481.149232 415.7708,488.196361 372.475553,495.872166 C249.534234,517.668406 125.405249,548.756265 7.97440768,591.395676 C-94.297502,628.530844 -194.41054,669.97637 -276.952091,742.038129" id="Path-2" stroke="#5D606D" fill="none" stroke-width="0.3px"></path>
							</g>
						</g>
					</svg>