<svg width="104" height="104" viewBox="0 0 104 104" fill="none" xmlns="http://www.w3.org/2000/svg">
<rect width="104" height="104" rx="16.9796" fill="url(#paint0_linear_1363_12923)"/>
<path d="M78.665 41.9999V28.6666H25.3317V41.9999H78.665ZM78.665 48.6666H25.3317V75.3333H78.665V48.6666ZM21.9984 21.9999H81.9984C83.8394 21.9999 85.3317 23.4923 85.3317 25.3333V78.6666C85.3317 80.5076 83.8394 81.9999 81.9984 81.9999H21.9984C20.1574 81.9999 18.665 80.5076 18.665 78.6666V25.3333C18.665 23.4923 20.1574 21.9999 21.9984 21.9999ZM28.665 51.9999H38.665V68.6666H28.665V51.9999ZM28.665 31.9999H35.3317V38.6666H28.665V31.9999ZM41.9984 31.9999H48.665V38.6666H41.9984V31.9999Z" fill="#525252"/>
<defs>
<linearGradient id="paint0_linear_1363_12923" x1="52" y1="0" x2="52" y2="104" gradientUnits="userSpaceOnUse">
<stop stop-color="#404141"/>
<stop offset="1" stop-color="#404141" stop-opacity="0"/>
</linearGradient>
</defs>
</svg>
