<svg width="104" height="104" viewBox="0 0 104 104" fill="none" xmlns="http://www.w3.org/2000/svg">
<rect width="104" height="104" rx="16" fill="white"/>
<path d="M52.0018 73.5234L54.2643 67.867C54.735 66.6903 54.2251 65.3492 53.0915 64.7824C52.4055 64.4394 51.598 64.4394 50.912 64.7824C49.7784 65.3492 49.2685 66.6903 49.7392 67.867L52.0018 73.5234Z" fill="#4D6658"/>
<path d="M73.5252 52L67.8687 49.7375C66.692 49.2668 65.3509 49.7767 64.7841 50.9103C64.4411 51.5963 64.4411 52.4038 64.7841 53.0898C65.3509 54.2234 66.692 54.7333 67.8688 54.2626L73.5252 52Z" fill="#4D6658"/>
<path d="M52.0018 30.4766L49.7392 36.1331C49.2685 37.3098 49.7784 38.6509 50.912 39.2177C51.598 39.5607 52.4055 39.5607 53.0915 39.2177C54.2251 38.6509 54.735 37.3098 54.2643 36.133L52.0018 30.4766Z" fill="#4D6658"/>
<path d="M30.4784 52L36.1348 54.2626C37.3115 54.7333 38.6526 54.2234 39.2194 53.0898C39.5624 52.4038 39.5624 51.5963 39.2194 50.9103C38.6526 49.7767 37.3115 49.2668 36.1348 49.7375L30.4784 52Z" fill="#4D6658"/>
<path d="M52 89L54.2626 83.3436C54.7333 82.1668 54.2234 80.8257 53.0898 80.2589C52.4037 79.9159 51.5963 79.9159 50.9102 80.259C49.7766 80.8257 49.2667 82.1668 49.7374 83.3436L52 89Z" fill="#4D6658"/>
<path d="M78.163 78.163L75.7631 72.5634C75.2639 71.3985 73.955 70.8107 72.7527 71.2115C72.025 71.4541 71.4541 72.025 71.2115 72.7527C70.8107 73.955 71.3985 75.2639 72.5634 75.7631L78.163 78.163Z" fill="#4D6658"/>
<path d="M89 52L83.3436 49.7374C82.1668 49.2667 80.8257 49.7766 80.2589 50.9102C79.9159 51.5963 79.9159 52.4037 80.259 53.0898C80.8257 54.2234 82.1668 54.7333 83.3436 54.2626L89 52Z" fill="#4D6658"/>
<path d="M78.163 25.8371L72.5634 28.2369C71.3985 28.7361 70.8107 30.045 71.2115 31.2473C71.4541 31.975 72.025 32.5459 72.7527 32.7885C73.955 33.1893 75.2639 32.6015 75.7631 31.4366L78.163 25.8371Z" fill="#4D6658"/>
<path d="M52 15L49.7374 20.6564C49.2667 21.8332 49.7766 23.1743 50.9102 23.7411C51.5963 24.0841 52.4037 24.0841 53.0898 23.7411C54.2234 23.1743 54.7333 21.8332 54.2626 20.6564L52 15Z" fill="#4D6658"/>
<path d="M25.837 25.8371L28.2369 31.4366C28.7361 32.6016 30.045 33.1893 31.2473 32.7885C31.975 32.5459 32.5459 31.975 32.7885 31.2473C33.1893 30.045 32.6015 28.7361 31.4366 28.2369L25.837 25.8371Z" fill="#4D6658"/>
<path d="M15 52L20.6564 54.2626C21.8332 54.7333 23.1743 54.2234 23.7411 53.0898C24.0841 52.4037 24.0841 51.5963 23.7411 50.9102C23.1743 49.7766 21.8332 49.2667 20.6564 49.7374L15 52Z" fill="#4D6658"/>
<path d="M25.8371 78.163L31.4366 75.7631C32.6016 75.2639 33.1893 73.955 32.7885 72.7527C32.546 72.025 31.975 71.4541 31.2473 71.2115C30.045 70.8107 28.7361 71.3985 28.2369 72.5634L25.8371 78.163Z" fill="#4D6658"/>
<path d="M39.1935 85.6178L45.7317 75.3663C46.3984 74.3209 46.2681 72.9559 45.4156 72.0556C44.8309 71.4381 43.9896 71.1318 43.1447 71.2291C41.9129 71.3708 40.9357 72.3327 40.7745 73.562L39.1935 85.6178Z" fill="#4D6658"/>
<path d="M66.2898 84.4348L63.664 72.5626C63.3963 71.352 62.339 70.479 61.0995 70.4451C60.2494 70.4219 59.4379 70.8003 58.9093 71.4665C58.1385 72.4377 58.1277 73.8088 58.883 74.7921L66.2898 84.4348Z" fill="#4D6658"/>
<path d="M84.6132 64.4383L74.3616 57.9001C73.3162 57.2334 71.9513 57.3637 71.051 58.2162C70.4334 58.8009 70.1272 59.6422 70.2244 60.4871C70.3661 61.7189 71.328 62.6961 72.5574 62.8573L84.6132 64.4383Z" fill="#4D6658"/>
<path d="M83.4301 37.342L71.558 39.9678C70.3473 40.2355 69.4743 41.2928 69.4405 42.5323C69.4172 43.3824 69.7956 44.1939 70.4618 44.7225C71.433 45.4933 72.8042 45.5041 73.7874 44.7488L83.4301 37.342Z" fill="#4D6658"/>
<path d="M63.4336 19.0186L56.8954 29.2702C56.2287 30.3156 56.359 31.6805 57.2115 32.5809C57.7962 33.1984 58.6376 33.5046 59.4824 33.4074C60.7142 33.2657 61.6914 32.3038 61.8526 31.0744L63.4336 19.0186Z" fill="#4D6658"/>
<path d="M36.3374 20.2017L38.9631 32.0738C39.2309 33.2845 40.2882 34.1575 41.5276 34.1913C42.3777 34.2146 43.1892 33.8362 43.7179 33.17C44.4886 32.1988 44.4995 30.8276 43.7442 29.8444L36.3374 20.2017Z" fill="#4D6658"/>
<path d="M18.014 40.1982L28.2655 46.7364C29.3109 47.4031 30.6759 47.2728 31.5762 46.4203C32.1937 45.8356 32.5 44.9942 32.4027 44.1494C32.261 42.9176 31.2991 41.9404 30.0698 41.7792L18.014 40.1982Z" fill="#4D6658"/>
<path d="M19.197 67.2944L31.0692 64.6687C32.2798 64.4009 33.1528 63.3436 33.1867 62.1042C33.2099 61.2541 32.8315 60.4426 32.1653 59.9139C31.1941 59.1432 29.823 59.1324 28.8397 59.8876L19.197 67.2944Z" fill="#4D6658"/>
<path d="M67.3227 67.1773L62.8996 59.2159C62.2915 58.1213 60.99 57.615 59.8021 58.011C59.0251 58.27 58.4154 58.8798 58.1564 59.6567C57.7604 60.8447 58.2666 62.1462 59.3613 62.7543L67.3227 67.1773Z" fill="#4D6658"/>
<path d="M67.3227 36.7524L59.3612 41.1755C58.2666 41.7836 57.7604 43.0851 58.1564 44.273C58.4154 45.05 59.0251 45.6597 59.8021 45.9187C60.99 46.3147 62.2915 45.8085 62.8997 44.7138L67.3227 36.7524Z" fill="#4D6658"/>
<path d="M36.8978 36.7524L41.3208 44.7139C41.9289 45.8085 43.2304 46.3147 44.4184 45.9187C45.1954 45.6597 45.8051 45.05 46.0641 44.273C46.4601 43.0851 45.9538 41.7836 44.8592 41.1754L36.8978 36.7524Z" fill="#4D6658"/>
<path d="M36.8978 67.1773L44.8592 62.7543C45.9538 62.1462 46.4601 60.8447 46.0641 59.6567C45.8051 58.8797 45.1953 58.27 44.4184 58.011C43.2304 57.6151 41.9289 58.1213 41.3208 59.2159L36.8978 67.1773Z" fill="#4D6658"/>
<path d="M54.3227 54.1777C55.6049 52.8956 55.6049 50.8168 54.3227 49.5347C53.0406 48.2526 50.9619 48.2526 49.6798 49.5347C48.3976 50.8168 48.3976 52.8956 49.6798 54.1777C50.9619 55.4598 53.0406 55.4598 54.3227 54.1777Z" fill="#4D6658"/>
</svg>
