<svg width="104" height="104" viewBox="0 0 104 104" fill="none" xmlns="http://www.w3.org/2000/svg">
<rect width="104" height="104" rx="16.9796" fill="white"/>
<path d="M67 63.531C67 66.9951 66.3117 70.0525 64.9351 72.7031C63.5584 75.3537 61.6104 77.4269 59.0909 78.9228C56.5974 80.4187 53.6494 81.1666 50.2468 81.1666C48.6623 81.1666 47.1299 81.0616 45.6494 80.8517C44.1688 80.668 42.7143 80.3531 41.2857 79.9069C39.8571 79.4345 38.4286 78.8178 37 78.0568V66.7589C39.0779 68.1236 41.2338 69.1602 43.4675 69.8688C45.7013 70.5774 47.7662 70.9316 49.6623 70.9316C51.0649 70.9316 52.2208 70.6561 53.1299 70.105C54.0649 69.5539 54.7532 68.8059 55.1948 67.8612C55.6623 66.9164 55.8961 65.8535 55.8961 64.6726C55.8961 63.4129 55.7013 62.3107 55.3117 61.3659C54.9221 60.3949 54.1688 59.437 53.0519 58.4922C51.961 57.5212 50.3506 56.4059 48.2208 55.1462C46.5584 54.1489 45.0519 53.1254 43.7013 52.0757C42.3766 51.026 41.2338 49.8713 40.2727 48.6116C39.3377 47.3256 38.6234 45.8429 38.1299 44.1633C37.6364 42.4837 37.3896 40.5023 37.3896 38.2192C37.3636 34.965 37.987 32.1175 39.2597 29.6769C40.5584 27.2363 42.4156 25.3467 44.8312 24.0083C47.2727 22.6436 50.1948 21.9744 53.5974 22.0007C55.9091 22.0007 58.1688 22.3156 60.3766 22.9454C62.6104 23.5753 64.7532 24.4676 66.8052 25.6223L63.8052 35.3849C61.961 34.2564 60.2208 33.4297 58.5844 32.9048C56.9481 32.3537 55.4156 32.0782 53.987 32.0782C52.7403 32.0782 51.6883 32.3275 50.8312 32.8261C50 33.2985 49.3636 33.9546 48.9221 34.7944C48.5065 35.6342 48.2987 36.5921 48.2987 37.668C48.2987 39.0327 48.5065 40.1874 48.9221 41.1322C49.3377 42.0769 50.1169 43.0086 51.2597 43.9271C52.4286 44.8194 54.1039 45.8954 56.2857 47.1551C58.6493 48.546 60.6234 50.0287 62.2078 51.6033C63.7922 53.1517 64.987 54.8969 65.7922 56.8389C66.5974 58.7547 67 60.9854 67 63.531Z" fill="black"/>
</svg>
