<svg id="Layer_1" data-name="Layer 1" xmlns="http://www.w3.org/2000/svg" viewBox="0 0 188.71 82.52"><title>arrow-right-dark</title><path d="M189.17,43q-18.81,18.64-37.61,37.29c-1.06,1-2.1,2.41-3.41,2.82a4.67,4.67,0,0,1-3.89-.76c-.71-.6-.9-2.51-.51-3.52a11.67,11.67,0,0,1,2.83-3.42q12.53-12.58,25.09-25.12c1.12-1.13,2.16-2.34,4-4.29h-6.22Q88.67,46,7.92,46C5,46,.51,47.18.46,42.54S4.86,39,7.81,39q80.76-.08,161.5,0h5.31l2.15,0-1.23-1.37C169.8,32.18,164,26.8,158.33,21.31c-4.2-4-8.15-8.36-12.43-12.31-2.84-2.62-3.34-5.8-1.79-7.34,1.66-1.25,3-1.48,5.63.91L189.17,42Z" transform="translate(-0.46 -0.74)"/></svg>