<?xml version="1.0" encoding="UTF-8"?>
<svg width="189px" height="84px" viewBox="0 0 189 84" version="1.1" xmlns="http://www.w3.org/2000/svg" xmlns:xlink="http://www.w3.org/1999/xlink">
    <!-- Generator: Sketch 48 (47235) - http://www.bohemiancoding.com/sketch -->
    <title>Artboard</title>
    <desc>Created with Sketch.</desc>
    <defs></defs>
    <g id="Page-1" stroke="none" stroke-width="1" fill="none" fill-rule="evenodd">
        <g id="Artboard" fill="#23C9FF" fill-rule="nonzero">
            <g id="arrow-right-dark">
                <path d="M188.71,43.26 C176.17,55.6866667 163.633333,68.1166667 151.1,80.55 C150.04,81.55 149,82.96 147.69,83.37 C146.344808,83.7067795 144.919518,83.4283168 143.8,82.61 C143.09,82.01 142.9,80.1 143.29,79.09 C144.00583,77.7794337 144.96654,76.6184337 146.12,75.67 C154.473333,67.2833333 162.836667,58.91 171.21,50.55 C172.33,49.42 173.37,48.21 175.21,46.26 L168.99,46.26 C115.136667,46.26 61.2933333,46.26 7.46,46.26 C4.54,46.26 0.05,47.44 -4.8709951e-15,42.8 C-0.05,38.16 4.4,39.26 7.35,39.26 C61.19,39.2066667 115.023333,39.2066667 168.85,39.26 L174.16,39.26 L176.31,39.26 L175.08,37.89 C169.34,32.44 163.54,27.06 157.87,21.57 C153.67,17.57 149.72,13.21 145.44,9.26 C142.6,6.64 142.1,3.46 143.65,1.92 C145.31,0.67 146.65,0.44 149.28,2.83 L188.71,42.26 L188.71,43.26 Z" id="Shape"></path>
            </g>
        </g>
    </g>
</svg>